<svg xmlns="http://www.w3.org/2000/svg" width="1249" height="862" viewBox="0 0 1249 862"><g fill="#F97316" fill-rule="evenodd" opacity=".05"><path d="M837.5 371C846.166667 371 846.166667 358 837.5 358 828.833333 358 828.833333 371 837.5 371M865.5 349C874.166667 349 874.166667 336 865.5 336 856.833333 336 856.833333 349 865.5 349M795.5 339C804.166667 339 804.166667 326 795.5 326 786.833333 326 786.833333 339 795.5 339M1157.5 526C1166.16667 526 1166.16667 513 1157.5 513 1148.83333 513 1148.83333 526 1157.5 526M1191.5 504C1200.16667 504 1200.16667 491 1191.5 491 1182.83333 491 1182.83333 504 1191.5 504M1191.5 542C1200.16667 542 1200.16667 529 1191.5 529 1182.83333 529 1182.83333 542 1191.5 542M367.5 682C376.166667 682 376.166667 669 367.5 669 358.833333 669 358.833333 682 367.5 682M336.5 618C345.166667 618 345.166667 605 336.5 605 327.833333 605 327.833333 618 336.5 618M298.5 701C307.166667 701 307.166667 688 298.5 688 289.833333 688 289.833333 701 298.5 701M437.5 723C446.166667 723 446.166667 710 437.5 710 428.833333 710 428.833333 723 437.5 723M376.941592 640 375.058408 640C371.212987 640 368 642.9562 368 646.5 368 650.0438 371.212987 653 375.058408 653L376.941592 653C380.789836 653 384 650.0438 384 646.5 384 642.9562 380.789836 640 376.941592 640M428.5 453C437.166667 453 437.166667 440 428.5 440 419.833333 440 419.833333 453 428.5 453M219.5 552C228.166667 552 228.166667 539 219.5 539 210.833333 539 210.833333 552 219.5 552M402.5 485C411.166667 485 411.166667 472 402.5 472 393.833333 472 393.833333 485 402.5 485M434.5 520C443.166667 520 443.166667 507 434.5 507 425.833333 507 425.833333 520 434.5 520M808.5 130C817.166667 130 817.166667 117 808.5 117 799.833333 117 799.833333 130 808.5 130M840.5 165C849.166667 165 849.166667 152 840.5 152 831.833333 152 831.833333 165 840.5 165M1160.5 802C1169.16667 802 1169.16667 789 1160.5 789 1151.83333 789 1151.83333 802 1160.5 802M1198 753.941592 1198 752.058408C1198 748.212987 1195.0438 745 1191.5 745 1187.9562 745 1185 748.212987 1185 752.058408L1185 753.941592C1185 757.789836 1187.9562 761 1191.5 761 1195.0438 761 1198 757.789836 1198 753.941592M1199.5 624C1201.5 624 1201.5 621 1199.5 621 1197.5 621 1197.5 624 1199.5 624M1168.5 558C1170.5 558 1170.5 555 1168.5 555 1166.5 555 1166.5 558 1168.5 558M1044.5 463C1046.5 463 1046.5 460 1044.5 460 1042.5 460 1042.5 463 1044.5 463M479.648622 710 478.351378 710C475.216207 710 475.216207 713 478.351378 713L479.648622 713C482.783793 713 482.783793 710 479.648622 710M428 646.648622 428 645.351378C428 642.216207 425 642.216207 425 645.351378L425 646.648622C425 649.783793 428 649.783793 428 646.648622M382.5 722C384.5 722 384.5 719 382.5 719 380.5 719 380.5 722 382.5 722M756.5 288C758.5 288 758.5 285 756.5 285 754.5 285 754.5 288 756.5 288M829.5 320C831.5 320 831.5 317 829.5 317 827.5 317 827.5 320 829.5 320M865 111.648622 865 110.351378C865 107.216207 862 107.216207 862 110.351378L862 111.648622C862 114.783793 865 114.783793 865 111.648622M784.5 162C786.5 162 786.5 159 784.5 159 782.5 159 782.5 162 784.5 162M391.5 437C393.5 437 393.5 434 391.5 434 389.5 434 389.5 437 391.5 437M442.5 494C444.5 494 444.5 491 442.5 491 440.5 491 440.5 494 442.5 494M678.026581 346.862242C627.192688 430.9431 572.148831 512.313284 516.271553 593.10516 512.987876 597.853003 520.731543 602.308122 523.981884 597.607876 579.859162 516.818381 634.903019 435.448196 685.736912 351.367338 688.722939 346.426725 681.000702 341.945427 678.026581 346.862242"/><path d="M516.271553 593.10516C498.307768 621.406591 523.79615 648.055201 546.698547 662.427245 580.483037 683.62714 616.117719 702.330549 651.369028 720.943524 722.228827 758.362242 794.812616 792.408683 867.613094 825.850637 872.806495 828.237648 877.347446 820.545903 872.120709 818.144613 807.354405 788.39384 742.833365 758.095697 679.436252 725.510497 647.735315 709.217897 616.379651 692.258933 585.393074 674.647885 561.423899 661.02788 500.660395 634.349522 523.981884 597.610256 527.077446 592.7339 519.345684 588.262121 516.271553 593.10516M933.610479 455.505753C974.436181 477.94794 1014.9428 500.966057 1054.55647 525.493012 1074.98242 538.139649 1095.09167 551.288439 1114.89136 564.889404 1124.57809 571.543524 1134.61724 578.028674 1143.32529 585.948886 1155.84327 597.334191 1152.5834 609.226409 1145.46599 622.560828 1104.29739 699.682942 1040.74074 761.638136 991.676081 833.419818 988.416216 838.1867 996.159884 842.6442 999.386412 837.924915 1026.1154 798.821247 1056.73527 762.687659 1086.06215 725.554525 1099.70168 708.283798 1112.93163 690.698928 1125.3615 672.535749 1138.2319 653.732385 1152.51911 633.341646 1160.21277 611.765732 1166.18483 595.011437 1152.61912 581.412851 1140.62739 572.17181 1119.57042 555.950607 1096.71327 541.654719 1074.32045 527.37311 1029.97771 499.093098 984.194346 473.128701 938.118094 447.799729 933.069946 445.024799 928.564713 452.733203 933.610479 455.505753M685.105893 354.030414C696.861886 336.069525 719.842863 341.417096 736.127901 348.980327 752.77012 356.70777 768.714646 366.33673 784.856812 375.044679 817.98647 392.917514 851.120891 410.780829 884.243406 428.665563 889.308222 431.400035 893.815837 423.694011 888.74864 420.959539 847.320494 398.588747 805.87806 376.248894 764.440389 353.892382 739.21632 340.284277 698.77161 316.868722 677.395563 349.525318 674.233327 354.358837 681.96747 358.823476 685.105893 354.030414M728.824756 479.697146C677.900377 462.474016 623.942348 502.541532 618.289375 554.429869 615.500988 580.042045 634.836345 602.967347 654.214564 616.853897 676.014466 632.474659 705.45088 634.847391 728.603304 621.097208 733.546679 618.160446 729.058114 610.444903 724.095689 613.391184 681.860316 638.474315 619.406159 596.367963 628.223748 547.56632 636.103145 503.959935 684.743951 474.197263 726.450698 488.302761 731.920318 490.151921 734.249133 481.532027 728.824756 479.697146"/><path d="M724.669559,621.470847 C749.324521,632.304974 775.496308,627.251555 799.084492,615.980484 C822.97985,604.564241 835.897869,583.985492 836.788439,557.775968 C837.667102,531.994821 827.096948,504.809549 807.878269,487.553102 C784.459151,466.524558 756.09904,471.493729 729.184317,481.765254 C723.85995,483.795285 726.167335,492.427078 731.555994,490.370869 C753.982151,481.812852 774.774804,476.560475 796.469932,490.049587 C816.648235,502.593889 825.546786,527.822906 827.623194,550.317451 C829.906766,575.070494 819.105635,594.452167 797.779593,606.60855 C777.54176,618.141407 751.060417,623.381884 729.177174,613.764824 C723.95758,611.470628 719.409484,619.159992 724.669559,621.470847"/><path d="M721.193005 498.847971C685.927408 487.119965 643.377716 517.151563 642.151397 554.541723 641.525141 573.65685 654.690805 589.792379 668.973252 600.735027 687.334698 614.802448 704.234086 612.746239 723.793277 602.343821 727.181727 600.539878 724.174269 595.404115 720.7882 597.205678 712.475425 601.625099 704.481731 605.261543 694.923588 605.666121 686.541758 606.020722 678.514727 600.159099 671.975948 595.596885 658.243558 586.013143 649.011639 571.338855 648.104401 554.541723 647.247168 538.646561 659.284143 525.968986 669.837629 515.706981 683.431909 502.486795 701.755255 498.648062 719.609505 504.585841 723.26465 505.799576 724.817193 500.052186 721.193005 498.847971M740.00926 505.939988C752.860605 495.130612 773.165112 502.272606 786.166473 509.129016 801.520461 517.225339 811.419116 532.301824 813.01214 549.453558 815.976736 581.377153 772.712683 606.841778 744.600217 598.08861 740.923641 596.943892 739.363954 602.688902 743.016718 603.82648 776.805969 614.345512 824.858618 582.757479 818.527003 545.105533 815.257613 525.661983 803.208733 511.394654 785.999789 502.320204 771.095848 494.459488 749.703132 490.040067 735.799295 501.732376 732.858511 504.207442 737.092288 508.393636 740.00926 505.939988"/><path d="M717.423562 501.718096C717.256878 510.925819 719.173746 533.839221 710.703811 539.717504 703.781658 544.522464 696.657103 547.766229 690.377874 553.601674 688.777706 555.086713 689.532547 558.087731 691.689916 558.573225 698.659693 560.13918 704.862724 562.704682 710.896689 566.524376L710.896689 561.386233C705.219904 564.810868 700.200331 568.640081 695.399828 573.197535 693.911577 574.608799 694.487828 576.798281 696.002272 577.869223 700.11937 580.784565 704.610316 581.569923 709.503686 582.536151 718.154591 584.244898 716.113901 594.930521 719.719041 601.277638 721.612096 604.611838 726.755492 601.61558 724.857674 598.27424 721.85736 592.988546 724.109977 584.271077 718.630832 580.199117 712.708783 575.796355 705.012739 576.983911 699.007349 572.73108 699.20737 574.289896 699.407391 575.846332 699.609793 577.405148 704.034065 573.204675 708.691696 569.665806 713.901765 566.524376 715.861494 565.343959 715.792439 562.583308 713.901765 561.386233 707.37251 557.254776 700.8123 554.532203 693.273415 552.835355 693.711556 554.494125 694.149697 556.150516 694.587838 557.809286 702.51724 550.441204 715.173327 547.00467 720.757245 537.55896 722.688399 534.296156 722.047856 528.931926 722.109767 525.407337 722.252639 517.501404 723.233694 509.631169 723.376566 501.718096 723.445621 497.879364 717.492617 497.886503 717.423562 501.718096M733.594303 505.154631C734.072924 516.309088 733.025196 531.383194 736.866074 541.949823 739.597312 549.463077 747.021899 549.03232 754.279801 550.662532 753.84166 549.003762 753.403519 547.347371 752.965378 545.688601 748.8078 550.053285 744.650222 554.41559 740.492644 558.780274 738.754367 560.605635 739.928299 563.925556 742.597626 563.85892 747.921993 563.728027 752.720114 564.487206 757.751593 566.229271 757.058664 565.008397 756.365734 563.787523 755.672804 562.569029 753.446381 568.811432 744.495444 569.39688 742.245208 576.693566 739.790189 584.649476 740.259286 592.745799 740.830775 600.956356 741.095088 604.76177 747.050473 604.787949 746.783779 600.956356 746.219434 592.848134 745.226473 584.147324 748.838756 576.565053 751.569994 570.829563 759.089829 570.662972 761.413882 564.149264 761.98537 562.54999 760.778101 560.988795 759.335093 560.491401 753.608303 558.511348 748.655403 557.759309 742.597626 557.909241 743.300081 559.60133 744.000154 561.293418 744.702608 562.987887 748.860187 558.623202 753.017765 554.260898 757.175343 549.896214 758.651688 548.346917 758.118299 545.431575 755.863301 544.924662 745.321721 542.55907 742.22854 538.280061 741.092707 527.696773 740.287861 520.207318 739.868769 512.679784 739.547307 505.154631 739.383004 501.332557 733.43 501.315898 733.594303 505.154631M736.537468 482.871894C735.073029 473.952136 731.222626 466.143778 725.293434 459.351625 720.969172 454.399113 711.487227 448.673142 705.39135 454.249181 690.56837 467.809688 717.921233 484.728194 728.046103 489.333245 731.513132 490.90872 734.542021 485.782477 731.051179 484.195103 723.767084 480.882322 703.48877 470.632216 708.103539 460.089385 711.85155 451.533747 723.578969 466.519798 725.238666 469.06388 728.272317 473.709389 729.905821 479.028402 730.796391 484.454509 731.417884 488.233745 737.154199 486.624952 736.537468 482.871894"/><path d="M736.673196 482.824297C734.549165 472.164853 736.816069 460.615337 744.119214 452.309585 748.343466 447.504625 749.519779 460.93186 749.519779 460.881882 749.612646 463.963816 748.364897 466.950554 746.967131 469.601731 744.014441 475.213468 737.806648 478.807074 732.163201 481.125069 728.665215 482.564891 730.196328 488.3218 733.7467 486.862939 748.833993 480.660994 763.866519 462.819098 750.486547 447.211901 744.485919 440.212699 736.966084 451.531367 734.613457 455.779438 729.796286 464.477868 729.022396 474.818409 730.932119 484.406912 731.682198 488.167108 737.420894 486.570215 736.673196 482.824297M804.196932 646.7477C803.173015 655.757893 810.195179 664.506301 819.617594 665.210743 834.578684 666.326902 846.541841 654.832123 858.324026 647.254612 874.020908 637.161578 890.57264 628.417692 906.876728 619.364661 915.668125 614.483545 924.373798 609.459636 932.955649 604.216779 938.370501 600.908758 946.280853 596.753503 949.278786 590.734808 953.460176 582.348141 952.8744 573.385545 943.761542 568.892348 932.750865 563.463861 915.944344 574.830127 906.750524 579.411379 871.003925 597.227097 837.790925 619.773999 804.70889 642.014136 801.541892 644.141741 804.518394 649.298922 807.713967 647.149898 827.368405 633.939232 847.053799 620.783064 867.239245 608.386314 887.543752 595.918168 910.827142 579.94685 934.124819 574.123305 945.180738 583.052583 946.095119 589.899473 936.872725 594.659216 934.593915 596.179954 932.286531 597.653094 929.950572 599.078637 925.081015 602.124872 920.104303 604.999757 915.132354 607.874642 903.938325 614.343132 892.541894 620.464162 881.25738 626.775581 871.232521 632.382796 861.360059 638.23252 851.699523 644.443984 847.187146 647.347427 842.820022 650.469819 838.357651 653.447038 830.797335 658.492365 807.999711 665.672438 810.149936 646.7477 810.583315 642.937526 804.625548 642.980363 804.196932 646.7477M835.147791 674.891584C835.412104 678.951644 837.779019 689.037539 843.767741 687.92376 859.67893 684.96082 875.387717 681.267259 890.953633 676.833559 906.502879 672.404618 921.747332 666.964232 936.753665 660.966956 943.582952 658.237243 957.258193 655.69792 958.953608 647.332672 960.294225 640.70949 957.612992 627.979796 952.895831 623.112959 948.081042 618.150927 930.198217 627.941718 925.297704 629.657367 894.487336 640.435805 864.624686 653.882078 835.835958 669.229869 832.447508 671.036192 835.454966 676.171954 838.841035 674.368012 858.112099 664.091727 877.818924 654.757871 898.00199 646.409282 907.524415 642.470595 917.180188 638.86271 926.881203 635.392857 931.038781 633.905438 935.227315 632.506073 939.415849 631.106709 945.616498 629.034079 949.950285 626.347204 951.278995 634.60988 951.76476 637.622797 954.307884 646.685347 950.676551 648.605903 944.456853 651.894886 937.610898 654.255718 931.076881 656.866437 921.525881 660.683751 911.798672 664.051269 902.019077 667.235537 892.2371 670.422185 882.312252 673.149518 872.346923 675.68884 866.129605 677.273835 841.872304 686.788561 841.100795 674.891584 840.85315 671.083789 834.897765 671.059991 835.147791 674.891584M861.793437 705.271594C887.127042 698.941136 912.460646 692.608298 937.79425 686.275461 936.572694 685.582918 935.353519 684.890375 934.131962 684.197833 941.268424 701.187735 925.278654 712.220819 910.610452 715.390808 894.006333 718.979654 873.666109 716.645 862.491129 702.879824 860.069447 699.900225 855.885676 704.136396 858.281165 707.087436 872.049273 724.04402 896.177989 724.589011 916.013399 720.302862 932.815158 716.671179 947.154754 699.954962 939.873039 682.617598 939.232496 681.09448 937.941885 680.106834 936.210751 680.53997 910.877147 686.870428 885.543543 693.203266 860.209938 699.533724 856.48812 700.464254 858.066857 706.202124 861.793437 705.271594M702.698211 522.522932C698.419192 519.802739 693.02577 520.383428 689.258709 523.68669 688.558636 524.298317 688.484819 525.440655 688.932485 526.209353 691.218438 530.136141 695.821301 531.728275 700.152707 530.673992 701.729062 530.288453 704.441251 528.879569 704.760332 527.070867 705.141324 524.905184 703.614974 522.56339 701.16948 523.48678 698.681124 524.42445 699.757427 528.451192 702.276739 527.501624 702.419611 527.449266 702.562483 527.394529 702.705355 527.339792 702.171966 527.270776 701.636195 527.19938 701.100425 527.130364 701.081375 527.111325 701.059945 527.089906 701.038514 527.068487 700.969459 526.535396 700.898023 525.999925 700.828968 525.464454 700.586085 526.851919 697.766743 526.892376 696.7714 526.840019 694.992643 526.747204 693.397238 525.597726 692.53048 524.107927 692.420945 524.948021 692.313791 525.790496 692.204256 526.630591 694.602126 524.529164 697.954858 524.441109 700.59561 526.118918 702.869658 527.56588 704.957972 523.960375 702.698211 522.522932M679.724378 537.508983C675.29058 537.604178 671.356835 540.014988 669.511404 544.094087 669.061357 545.086494 669.178036 546.376384 670.259101 546.942793 674.726235 549.279827 681.210248 550.103263 685.394019 546.654829 687.096578 545.253085 688.496725 543.270652 688.175262 540.959797 687.689497 537.451866 684.343909 537.877863 681.488848 537.480424 678.862383 537.113924 677.728931 541.126388 680.381589 541.495268 682.000807 541.721355 683.622405 541.947443 685.241622 542.171151 684.755857 541.688037 684.270092 541.202543 683.786708 540.71705 684.855867 543.30159 681.050707 544.474867 679.162414 544.719993 676.7955 545.029377 674.447635 544.436789 672.361702 543.346808 672.611728 544.296376 672.861755 545.245945 673.1094 546.195514 674.35953 543.432483 676.640722 541.740394 679.724378 541.673758 682.407992 541.616641 682.412754 537.451866 679.724378 537.508983M680.367302 564.415809C676.159719 566.036502 672.430757 568.266441 669.032782 571.229381 668.11602 572.026638 668.351759 573.345087 669.032782 574.173282 673.226078 579.275727 679.957736 576.362764 684.220086 573.049983 686.194103 571.517346 688.23003 569.144614 687.084672 566.488677 686.103617 564.2159 683.677173 563.171137 681.479323 564.41343 679.140983 565.731878 681.238822 569.330244 683.581924 568.009415 682.731835 568.487769 681.717444 569.763381 680.895929 570.363108 680.091083 570.948557 679.248137 571.453089 678.383761 571.940963 676.231155 573.147558 673.616596 573.223714 671.978329 571.229381L671.978329 574.173282C674.809578 571.705356 677.967051 569.78242 681.474561 568.430653 683.955773 567.476324 682.87947 563.449582 680.367302 564.415809M696.352309 586.322526C692.78765 588.302579 688.861048 591.791471 687.684735 595.863431 686.379836 600.387566 690.194521 601.832148 693.966345 601.161024 697.835798 600.470862 701.562378 597.184259 702.826796 593.493079 704.117407 589.718603 702.745835 584.851765 698.033437 584.94458 695.349823 584.996938 695.345061 589.161713 698.033437 589.109355 700.855161 589.054618 698.209646 593.583514 697.442899 594.485485 696.249917 595.884849 694.609269 596.696386 692.859086 597.143801 692.570961 597.186639 692.280454 597.227097 691.992329 597.267555 691.244631 597.417487 691.158908 597.291353 691.739921 596.891535 692.142344 595.939587 692.756694 595.066174 693.347232 594.223699 694.635463 592.386438 696.518993 590.994214 698.45491 589.918512 700.805156 588.614342 698.702555 585.015977 696.352309 586.322526M755.839489 526.406883C756.844356 524.862346 758.006382 523.562936 759.380335 522.339682 760.097077 521.701877 760.91621 521.202104 761.730581 520.704711 762.318738 520.34773 762.937851 520.052626 763.587919 519.821778 764.885674 519.345804 765.369058 519.457658 765.038071 520.15496 762.28302 522.672864 758.356419 523.50106 754.746517 523.175017 752.067665 522.93227 752.091477 527.099425 754.746517 527.339792 758.351656 527.665835 761.766299 526.882857 764.966634 525.226466 767.462134 523.936576 770.619607 521.511487 769.069445 518.355778 765.169037 510.404627 754.903676 520.214457 752.241493 524.305456 750.76991 526.563954 754.379812 528.648722 755.839489 526.406883M764.673747 540.207757C766.552515 539.719884 768.428902 539.23201 770.30767 538.744136 771.433978 538.451412 772.562668 538.156308 773.688976 537.863584 774.901008 537.549441 776.696434 538.134889 777.653677 537.620837 775.610606 538.717958 767.304975 541.45005 766.10723 537.93022 765.247616 535.400417 761.221004 536.485638 762.090143 539.03686 763.073579 541.928404 765.685757 543.384886 768.676547 543.563376 772.32931 543.782324 778.358513 543.142139 781.118325 540.383868 783.292362 538.211045 780.653991 533.955835 778.087056 533.525078 773.329415 532.727821 768.138395 535.002978 763.566488 536.192914 760.966216 536.866418 762.071093 540.883641 764.673747 540.207757M773.884235 557.823566C775.972549 557.299994 777.953708 557.111984 780.09679 557.19052 781.308821 557.233357 788.088103 558.28764 784.959204 560.179638 781.175474 562.469075 775.498689 558.696978 773.374658 555.774496 771.81497 553.623092 768.197925 555.69834 769.776662 557.875923 773.748506 563.344867 784.042441 568.447312 789.409669 561.80747 791.602756 559.089657 789.883529 555.753077 786.968938 554.563142 782.427986 552.706842 777.494136 552.623546 772.776976 553.808722 770.171941 554.460807 771.276819 558.47803 773.884235 557.823566M760.920973 577.72881C762.321119 581.224841 764.745183 583.876018 768.214594 585.415795 771.243482 586.760422 775.505833 587.248296 778.003714 584.675655 780.596842 582.005439 777.682251 578.133388 775.429635 576.496037 771.810208 573.861519 767.485946 572.645405 763.023574 573.009525 760.363772 573.223714 760.342341 577.390869 763.023574 577.1743 766.66205 576.876816 773.069864 577.859703 774.731942 581.79839 775.031974 582.512352 772.112621 582.255326 772.048328 582.248186 770.938688 582.098254 769.902866 581.660358 768.92181 581.143926 767.112097 580.189597 765.692901 578.502268 764.93806 576.62217 763.954624 574.159003 759.923249 575.232325 760.920973 577.72881"/><path d="M822.220247 651.111432C851.249476 633.5575 880.281087 616.004283 909.310316 598.452731 911.605795 597.062886 909.512718 593.46214 907.207715 594.856745 878.178486 612.408297 849.146875 629.961515 820.117646 647.515446 817.822168 648.902911 819.915244 652.506037 822.220247 651.111432M928.071804 584.792269C925.200075 586.570033 922.225954 588.150267 919.14706 589.537732 916.699185 590.639613 918.820836 594.228459 921.249661 593.133718 924.330936 591.748633 927.302676 590.166018 930.174405 588.388254 932.453215 586.976991 930.36252 583.373865 928.071804 584.792269M912.458265 486.222753C930.707794 494.06205 949.012091 501.763314 967.375918 509.326545 969.861893 510.34989 970.931053 506.320768 968.483177 505.311702 950.452718 497.884123 932.479408 490.323272 914.560866 482.626768 912.120134 481.577244 909.996102 485.16609 912.458265 486.222753M771.703054 422.104257C808.675972 439.869997 845.929872 457.03601 883.459991 473.595156 885.893579 474.670857 888.01523 471.082011 885.562592 469.99917 848.032473 453.440024 810.778573 436.274012 773.805655 418.508271 771.395879 417.349274 769.281372 420.9405 771.703054 422.104257M1002.7701 529.100897C1012.60446 534.805449 1022.43883 540.507621 1032.27319 546.212173 1034.602 547.56394 1036.69746 543.963194 1034.37579 542.616187 1024.54143 536.911635 1014.70706 531.209463 1004.8727 525.504911 1002.54389 524.153144 1000.44843 527.75389 1002.7701 529.100897M1089.23868 633.510379C1078.64471 614.459746 1057.43535 606.470518 1038.03332 599.169072 1025.6725 594.521183 1012.93069 591.453529 999.772167 590.373067 991.973732 589.730502 978.243723 589.482995 972.419304 596.310846 959.458423 611.494426 986.908916 622.865452 996.883769 628.746114 1019.20039 641.904186 1042.99812 652.537451 1069.16515 654.093887 1071.85114 654.253338 1071.83685 650.088563 1069.16515 649.929112 1050.53224 648.820092 1033.52094 642.975128 1016.8311 634.862146 1009.52319 631.308998 1002.47721 627.208717 995.481242 623.0844 991.988019 621.025811 988.540039 618.891067 985.087296 616.768221 982.177468 615.071373 979.391462 613.191275 976.729279 611.127926 973.00746 602.412837 974.71002 597.305633 981.832194 595.808694 999.743593 589.140294 1024.1771 598.390854 1040.99315 604.716552 1058.06875 611.139825 1076.37304 618.948184 1085.64068 635.611805 1086.94558 637.960739 1090.54596 635.859312 1089.23868 633.510379"/><path d="M1049.07257 619.267086C1042.34091 616.194672 1035.48305 614.490684 1028.10132 614.055168 1022.95793 613.750544 1014.99995 613.441161 1012.32824 618.786352 1006.66813 630.108115 1040.66216 636.133949 1045.88414 637.150154 1048.5106 637.659447 1049.62977 633.646984 1046.99378 633.132931 1037.74519 631.333749 1028.10609 628.943644 1019.67901 624.609898 1019.10991 622.729799 1018.53842 620.849701 1017.96693 618.969602 1019.79807 618.588823 1021.64589 618.355596 1023.51037 618.26516 1025.80108 618.08191 1028.1037 618.219943 1030.39204 618.355596 1036.13312 618.693537 1041.77656 620.49272 1046.96996 622.863072 1049.39403 623.969712 1051.5133 620.380866 1049.07257 619.267086M1023.96041 678.260054C1034.61153 684.847538 1045.88652 690.052317 1057.79491 693.921988 1060.35708 694.757322 1061.44529 690.73534 1058.90217 689.907144 1047.32715 686.144568 1036.40934 681.063542 1026.06301 674.664068 1023.7723 673.245664 1021.6816 676.85117 1023.96041 678.260054M655.693291 668.382397C714.601838 694.372973 774.09378 719.009402 834.133399 742.270266 836.64476 743.243633 837.719489 739.214511 835.240658 738.255423 775.536789 715.123072 716.375834 690.631815 657.795892 664.786411 655.362304 663.713089 653.238272 667.299556 655.693291 668.382397M762.852127 689.769826C771.948318 697.076031 781.561229 703.5826 791.759915 709.253833 794.112543 710.560383 796.212763 706.962017 793.864898 705.657848 783.98053 700.162724 774.615264 693.906042 765.797674 686.823545 763.726028 685.160015 760.75667 688.087257 762.852127 689.769826M570.203389 605.049734C579.144801 613.143677 589.124417 619.704983 600.144619 624.621797 602.575825 625.707018 604.697476 622.120552 602.24722 621.025811 591.550862 616.251789 581.83794 609.971309 573.151317 602.103454 571.163013 600.306651 568.207942 603.243412 570.203389 605.049734M588.63389 600.970635C592.812899 604.702273 596.991908 608.431532 601.170916 612.16317 603.168745 613.945694 606.126197 611.011312 604.118844 609.216889 599.939835 605.487631 595.758445 601.755992 591.579436 598.026734 589.583989 596.24183 586.626537 599.178592 588.63389 600.970635M866.893971 524.583901C886.222185 535.112452 905.550399 545.641004 924.880994 556.169555 927.240765 557.457065 929.343366 553.8587 926.983595 552.573569 907.655381 542.045018 888.324786 531.516467 868.996572 520.987915 866.636801 519.702785 864.5342 523.298771 866.893971 524.583901M928.852838 780.864879C938.018083 789.263445 948.452509 795.65578 960.079917 800.058542 962.599228 801.01287 963.675531 796.986128 961.187175 796.043699 950.245554 791.897963 940.425478 785.822151 931.798385 777.920978 929.821987 776.109896 926.869297 779.046657 928.852838 780.864879M925.862049 30.2512849C916.870631 108.08974 908.02923 185.944854 899.102105 263.792829 894.518292 303.781809 889.467763 343.74461 885.762613 383.826405 881.705045 427.742173 881.11927 471.85309 880.599796 515.923549 880.533494 521.680458 889.463 521.673318 889.529674 515.923549 890.048776 471.831671 890.801236 427.773111 894.692119 383.826405 898.242491 343.73747 903.445417 303.772289 908.031611 263.792829 916.961117 185.947234 925.800138 108.08974 934.791555 30.2512849 935.451148 24.5395935 926.514498 24.60385 925.862049 30.2512849"/><path d="M888.222394,519.076879 C924.954811,485.706321 948.497752,443.461223 962.730194,396.282652 C970.976295,368.937929 976.122072,340.717414 980.77494,312.580194 C985.353991,284.88325 988.194765,257.533767 985.361135,229.472703 C984.789646,223.803849 975.852996,223.746732 976.431628,229.472703 C981.775045,282.398664 969.569005,338.727841 955.372281,389.585694 C942.142325,436.990353 918.539854,479.487717 881.907448,512.76546 C877.637953,516.64465 883.971949,522.93703 888.222394,519.076879"/><path d="M910.708082 225.153236C934.103388 228.080478 957.501075 231.00772 980.896381 233.934962 986.601741 234.648923 986.532686 225.714886 980.896381 225.010444 957.501075 222.083202 934.103388 219.15596 910.708082 216.228718 905.005104 215.514757 905.074158 224.448794 910.708082 225.153236M920.213839 248.057119C916.330099 305.830878 909.981815 363.383309 901.152319 420.609698 900.747515 423.237076 904.762221 424.365135 905.171788 421.718718 914.056051 364.123449 920.471008 306.202138 924.380941 248.057119 924.561913 245.375004 920.392429 245.391663 920.213839 248.057119M898.290115 435.617167C897.151901 442.080898 896.354198 448.580327 895.906532 455.127353 895.72318 457.809468 899.892664 457.792809 900.073635 455.127353 900.495108 448.949207 901.235661 442.823418 902.307202 436.723807 902.771536 434.098809 898.754449 432.97551 898.290115 435.617167M894.096819 465.72968C893.613435 467.59312 893.130051 469.456559 892.649048 471.317619 891.972787 473.921198 895.992255 475.023078 896.666135 472.426639 897.149519 470.563199 897.632903 468.69976 898.113906 466.836321 898.790167 464.235121 894.770699 463.130861 894.096819 465.72968M1114.55323 168.371884C1084.05956 178.26025 1061.30956 201.461616 1052.21813 232.200036 1044.78878 257.319579 1047.58908 301.796996 1077.25885 311.959047 1107.81443 322.423342 1136.48172 300.837908 1151.14277 275.318546 1158.92216 261.779458 1162.89639 245.755783 1162.77018 230.215223 1162.62017 211.745041 1153.69066 194.093534 1147.17331 177.251184 1145.12072 171.941691 1136.4841 174.247786 1138.56289 179.623916 1149.03303 206.685434 1158.64356 229.948677 1148.81158 258.925992 1140.25116 284.157389 1115.4438 309.369747 1086.85033 305.435819 1054.06595 300.925963 1055.05653 254.087713 1061.96915 230.714996 1069.6271 204.821995 1091.74608 185.145218 1116.92729 176.977499 1122.38024 175.209254 1120.04666 166.58936 1114.55323 168.371884"/><path d="M1121.81351 173.62664C1147.23522 117.104693 1174.51427 61.4513995 1203.62208 6.73577523 1206.32474 1.65712958 1198.61679-2.8527268 1195.91175 2.2306786 1166.80394 56.9486827 1139.52489 112.599596 1114.10318 169.121543 1111.76246 174.326322 1119.45612 178.869497 1121.81351 173.62664M1146.72326 180.687718C1175.562 135.063203 1203.48397 88.784223 1228.49611 40.9369077 1231.15829 35.8416029 1223.45273 31.3293667 1220.78578 36.4318111 1195.77364 84.2791263 1167.85167 130.558106 1139.01293 176.182622 1135.9269 181.063738 1143.65628 185.537896 1146.72326 180.687718M1114.40798 193.662777C1077.95178 202.882399 1054.78269 250.432231 1078.91855 281.998846 1080.52586 284.102652 1084.14767 282.032164 1082.51654 279.897419 1060.01181 250.463169 1081.46167 206.290375 1115.51524 197.677621 1118.12027 197.020776 1117.01539 193.003553 1114.40798 193.662777M1091.54606 292.851059C1096.94901 294.350378 1102.42815 293.717333 1107.37629 291.099474 1109.75273 289.840522 1107.64536 286.246916 1105.27369 287.503488 1101.30184 289.604915 1096.9752 290.035671 1092.65332 288.836216 1090.06019 288.115115 1088.96007 292.132338 1091.54606 292.851059M1119.22277 283.848006C1122.76599 281.810836 1125.31626 278.690824 1126.76165 274.88779 1127.71651 272.372266 1123.68752 271.294184 1122.74218 273.77877 1121.68731 276.55608 1119.67758 278.781259 1117.12017 280.25202 1114.79135 281.589508 1116.88919 285.190253 1119.22277 283.848006M227.754445 34.525534C207.976184 84.100636 215.20075 149.394789 235.618364 197.715699 247.048132 224.767697 260.849576 251.117634 281.180276 272.603113 303.092094 295.759262 332.528509 306.152161 363.417456 310.771491 429.641055 320.674136 500.903277 315.443179 561.290551 284.983204 587.693315 271.663064 612.138731 252.445602 630.154903 228.922953 650.657049 202.158918 663.227413 171.006401 672.268835 138.761523 682.28417 103.046793 687.375179 65.9802949 682.103198 29.0637291 681.291208 23.3853558 672.690308 25.8080649 673.492773 31.4364609 678.943344 69.5905598 672.054527 107.71848 661.377219 144.36612 651.319023 178.893295 635.607855 211.502294 610.707629 237.780834 561.035763 290.199883 486.111253 306.954177 416.401574 305.971291 381.293137 305.473897 343.23201 302.744185 311.916827 285.528195 283.70435 270.016193 265.83105 240.712836 252.112948 212.670811 226.849589 161.03474 214.450672 91.8280786 236.36368 36.8982659 238.499618 31.5483149 229.858237 29.2469792 227.754445 34.525534"/><path d="M428.567134,101.825918 C399.011659,101.507016 376.806953,126.000653 378.785732,155.318289 C380.74308,184.283704 408.236434,203.336955 435.525005,202.515899 C467.826005,201.544912 486.942292,174.719001 484.349163,144.294724 C481.922719,115.795764 455.498524,96.911484 427.776575,101.933013 C424.00237,102.616036 425.604919,108.349146 429.357692,107.668503 C452.862534,103.413293 473.545652,118.849139 478.043741,141.767301 C483.737195,170.785073 464.058944,193.819849 435.525005,196.566221 C411.00339,198.927053 390.239312,181.073258 385.122109,157.905209 C379.209586,131.148314 402.885874,107.499532 428.567134,107.775597 C432.408012,107.816055 432.403249,101.866376 428.567134,101.825918"/><path d="M525.377268 73.0818312C518.540838 51.9961703 502.55345 46.7771122 482.294186 52.9719176 469.426173 56.9058451 457.803527 63.8622093 444.699775 67.1964092 433.955793 69.9308814 422.91178 66.0421715 412.555934 63.47905 404.400318 61.4585391 395.997057 60.4970711 387.631896 59.9259019 358.562186 57.943469 349.71126 77.6892623 335.233554 98.7011473 327.749437 109.56526 314.686165 118.039983 309.70231 130.527168 304.727979 142.997694 308.035468 155.246893 314.581392 166.458467 317.912693 172.163019 322.84178 176.996538 327.175567 181.913352 334.023903 189.683632 336.09793 198.324946 337.062316 208.372763 338.176719 219.974636 337.98146 234.598946 346.946685 243.509185 364.186584 260.639499 397.106697 265.082719 419.056614 255.332386 433.129516 249.080464 441.635168 234.727459 455.991433 229.672612 470.90728 224.422616 489.292538 231.114814 504.687007 230.874447 529.930125 230.481769 545.162672 209.017708 546.458046 185.509338 547.427195 167.938747 537.935725 150.013555 527.470344 136.60298 522.041204 129.644236 516.354895 123.059131 520.321977 113.772873 522.174552 109.436747 523.686615 105.086342 525.003419 100.562207 527.632266 91.523455 527.458438 82.1705603 525.377268 73.0818312 524.0938 67.4724742 515.483375 69.8523457 516.766843 75.4545631 518.907543 84.8003182 517.838383 93.2179235 515.190487 102.316172 513.666518 107.556649 508.904115 114.103675 509.344637 119.870104 510.401891 133.773313 522.357904 143.561724 529.070512 155.142178 537.078493 168.954952 539.785919 184.73826 534.697291 199.967057 528.556172 218.344424 511.266267 222.86618 493.895401 221.626267 481.382186 220.733815 469.504752 218.334905 456.953438 220.253081 442.778145 222.421144 434.601099 234.813135 423.816636 242.707168 411.243892 251.910131 394.2183 252.4813 379.511998 249.694471 371.739756 248.22371 364.274689 245.208413 357.571606 241.067437 348.777829 235.63419 347.418162 224.577307 346.551405 215.348166 345.463196 203.760572 344.798841 193.05353 338.926797 182.734408 330.573542 168.050601 316.20299 160.223204 316.045831 141.41032 315.931533 127.723679 333.697679 115.579196 341.224657 105.50758 348.777829 95.4002656 353.897412 83.581824 363.134093 74.788199 374.585292 63.886008 396.609026 69.1074459 410.181876 72.0846651 426.443102 75.6497125 439.130144 78.6745291 455.4509 73.3793152 475.414895 66.903685 506.658642 44.2806271 516.766843 75.4545631 518.533694 80.9044686 527.158407 78.5721946 525.377268 73.0818312M578.473302 124.239548C573.448967 126.072049 570.867744 130.593804 571.61306 135.843801 572.358376 141.112836 578.44949 144.811156 583.452395 143.906805 588.279091 143.033392 594.117797 138.216533 592.522392 132.650013 590.700773 126.300516 584.43345 124.951129 578.618556 124.422798 575.942085 124.180051 575.965897 128.344826 578.618556 128.587573 581.695068 128.866018 584.793012 129.173021 587.178976 131.329185 590.395979 134.232628 587.233743 138.223672 584.21438 139.449306 576.911234 142.417006 571.839275 131.079298 579.580561 128.254391 582.083204 127.3429 581.002138 123.316158 578.473302 124.239548M541.347987 117.53545C537.561877 120.693539 536.292696 125.667471 538.621511 130.079752 540.776499 134.165991 545.750829 135.141739 549.610757 133.130747 553.363531 131.179253 555.151813 126.119646 553.432586 122.295193 551.477619 117.951927 546.874756 115.931416 542.30523 116.626339 539.657334 117.028537 540.786024 121.04338 543.41487 120.643562 548.315383 119.896282 551.984815 125.279552 548.232041 129.01595 546.274694 130.967444 543.586317 130.013116 542.219507 127.978326 540.450274 125.346188 542.198076 122.230936 544.293534 120.479351 546.360417 118.756324 543.395821 115.826702 541.347987 117.53545M571.346366 169.74269C568.015065 171.782239 565.645769 175.247332 566.157727 179.276455 566.660161 183.238941 569.981937 186.308975 574.039505 185.975793 577.594639 185.680689 580.587809 182.851022 581.225971 179.393068 581.983194 175.311589 579.275767 171.242009 575.639672 169.595138 573.210847 168.495637 571.091577 172.084483 573.537071 173.191123 577.273177 174.885592 578.911443 180.345017 574.056173 181.77532 572.010721 182.379807 570.472465 180.440212 570.239107 178.610091 569.950982 176.337313 571.658303 174.435796 573.448967 173.338675 575.737302 171.939311 573.644225 168.336186 571.346366 169.74269M473.183709 256.872163C461.627737 259.670892 465.190015 276.658414 476.660263 275.320926 481.810802 274.721199 485.780266 270.308917 485.737404 265.146976 485.68978 259.187778 478.950979 256.624656 474.138571 255.834539 471.512105 255.401402 470.385797 259.413866 473.031312 259.849382 475.774456 260.301558 478.415209 260.875107 480.446374 262.900377 483.244286 265.691966 480.53686 269.637793 477.631794 270.832489 470.792982 273.645497 466.575874 262.755205 474.290968 260.887006 476.903146 260.25634 475.795887 256.239117 473.183709 256.872163M277.332254 130.243963C272.017412 127.635624 267.643145 132.833263 266.885923 137.745318 266.071552 143.021493 269.067103 148.104898 274.339084 149.328152 286.711808 152.198277 289.183495 129.772749 277.289393 128.725605 274.612922 128.489998 274.634353 132.657153 277.289393 132.89038 280.768328 133.197384 280.861195 137.578727 280.718323 140.175167 280.570688 142.88584 279.215785 145.172897 276.351199 145.358527 267.864596 145.910657 271.343532 131.933672 275.229653 133.839949 277.632286 135.020365 279.744412 131.426759 277.332254 130.243963M290.338378 177.486791C286.778481 172.743708 282.323253 179.621536 281.185039 182.855781 279.420568 187.867791 280.742135 195.883198 287.354732 196.468646 293.622055 197.023156 297.396259 191.144873 298.024897 185.611672 298.710683 179.581078 293.576812 174.378679 288.050043 173.188743 285.430721 172.624714 284.316319 176.639557 286.942784 177.205966 292.445741 178.391142 295.357951 183.655418 292.926744 188.876856 290.983683 193.05829 285.945061 193.24392 284.525864 188.61983 284.006762 186.932501 284.816371 184.852493 285.492632 183.348415 285.897437 182.451203 287.583327 180.711517 286.740382 179.588218 288.331025 181.711063 291.952832 179.638195 290.338378 177.486791"/><path d="M250.762806 35.1585798C239.844997 70.2640634 236.823252 109.186861 242.161906 145.539397 247.993469 185.266591 270.488681 222.606774 299.098819 250.115708 301.034735 251.976767 303.985044 249.035246 302.046746 247.171807 274.23193 220.426812 254.017909 185.756845 246.726669 147.683661 239.833091 111.683346 243.959713 71.0589405 254.779893 36.2652201 255.579977 33.6949589 251.558128 32.6025979 250.762806 35.1585798M320.58202 264.318781C345.837045 284.32636 377.247476 290.180844 408.300726 295.199992 410.929573 295.625989 412.055881 291.613526 409.410366 291.185149 379.247685 286.308793 348.111092 280.851748 323.527566 261.37488 321.446396 259.725629 318.477038 262.650491 320.58202 264.318781M426.781232 295.825899C432.955688 296.796886 439.02299 296.646954 445.128391 295.302327 447.752475 294.724018 446.640454 290.709175 444.021132 291.285104 438.680097 292.46314 433.2962 292.66067 427.888491 291.811056 425.262026 291.396958 424.133336 295.409421 426.781232 295.825899M514.861881 280.128267C572.951296 255.8155 635.603092 219.132162 647.566249 151.677086 648.032965 149.052087 644.018259 147.928788 643.549162 150.570445 631.847937 216.552381 570.586762 252.326608 513.754623 276.113423 511.313891 277.134388 512.38305 281.165891 514.861881 280.128267M647.059054 35.7130899C648.361571 64.0644983 646.782834 92.2493158 642.239501 120.269922 641.813266 122.89492 645.827972 124.022979 646.256589 121.376562 650.859451 92.9965954 652.545342 64.4381382 651.226156 35.7130899 651.102334 33.0381144 646.935231 33.026215 647.059054 35.7130899M408.879358 126.812189C393.715866 142.966756 397.878207 195.887957 428.898121 182.341729 453.267338 171.703704 436.341757 117.635404 410.305698 125.465181 406.638648 126.569442 408.203097 132.312072 411.886816 131.203052 421.859288 128.204414 426.669316 136.805269 430.122058 144.018659 434.767783 153.723775 437.053736 165.439882 429.626768 174.326322 423.695195 181.423099 414.318023 177.958006 409.634199 171.603749 406.338616 167.134351 406.16717 160.880048 405.986198 155.603873 405.686167 146.855466 406.888674 137.623945 413.089323 131.019801 415.711026 128.225832 411.510586 124.0087 408.879358 126.812189M449.312162 142.393207C448.273958 147.809794 447.990595 152.926518 451.676696 157.391157 454.712728 161.068058 460.475236 160.813412 463.97084 158.07894 467.773619 155.1041 468.749911 149.573279 466.485389 145.322829 463.961315 140.579745 458.848875 138.297448 453.593563 138.713926 449.793165 139.016169 449.764591 144.968228 453.593563 144.663604 455.779506 144.489874 457.917825 144.74452 459.701345 146.143884 461.582494 147.614645 462.551644 150.787014 460.965763 152.807524 459.332259 154.889912 456.701031 154.487714 455.353271 152.431505 453.774534 150.023075 454.553187 146.579401 455.05324 143.975822 455.769981 140.227524 450.033666 138.62825 449.312162 142.393207M1069.34135 345.584251C1017.48593 362.595572 1043.66962 452.302446 1095.8727 429.800761 1117.9512 420.283655 1128.29276 398.200828 1122.39215 375.068478 1116.39628 351.552968 1091.69131 339.751186 1069.34135 345.584251 1063.7741 347.038352 1066.13864 355.646347 1071.71541 354.189866 1112.0363 343.666074 1130.55491 398.300783 1097.28237 419.26507 1056.4019 445.027179 1027.74891 368.614267 1071.71541 354.189866 1077.16122 352.402582 1074.82764 343.785068 1069.34135 345.584251M1157.32437 298.001101C1105.46895 315.012422 1131.65264 404.719296 1183.85572 382.217612 1205.93422 372.700506 1216.27578 350.617679 1210.37517 327.485328 1204.3793 303.969819 1179.67433 292.168036 1157.32437 298.001101 1151.75712 299.455203 1154.12166 308.063198 1159.69843 306.606716 1200.01932 296.082925 1218.53554 350.717633 1185.26539 371.681921 1144.38492 397.444029 1115.73192 321.031117 1159.69843 306.606716 1165.14424 304.819433 1162.81066 296.201918 1157.32437 298.001101"/><path d="M1048.25819 394.964203C1045.31027 392.215452 1042.18851 394.564385 1039.67873 396.746727 1034.3115 401.418415 1028.94427 406.087722 1023.57466 410.75941 1022.17689 411.975524 1023.31511 414.331597 1025.04862 414.312673 1033.4757 414.224503 1041.6194 412.713284 1049.50118 409.712266 1051.98478 408.765078 1050.9087 404.738335 1048.39392 405.695044 1040.85028 408.569928 1033.12566 410.064487 1025.04862 410.147783 1025.53915 411.332959 1026.02968 412.518135 1026.52259 413.703311 1028.19657 412.24683 1044.49828 397.148925 1045.31027 397.908104 1047.27238 399.738225 1050.22745 396.799084 1048.25819 394.964203M1115.33188 363.314293C1121.43014 360.432269 1127.5284 357.550244 1133.62666 354.66822 1136.0531 353.521122 1133.93621 349.929896 1131.52167 351.072234 1125.42342 353.954259 1119.32754 356.836283 1113.22928 359.718307 1110.80046 360.865405 1112.91734 364.456631 1115.33188 363.314293M1120.88246 373.621516C1126.82356 370.22544 1132.99564 367.407672 1139.46536 365.168213 1141.98705 364.29718 1140.90361 360.272817 1138.35572 361.15337 1131.55501 363.507062 1125.02814 366.453343 1118.77986 370.02553 1116.44867 371.358258 1118.54651 374.956624 1120.88246 373.621516M1201.26945 317.737375C1212.62778 312.147057 1223.89087 306.371109 1235.0587 300.409531 1237.43038 299.143439 1235.3254 295.549834 1232.9561 296.813545 1221.78827 302.775123 1210.52518 308.551071 1199.16685 314.141389 1196.75469 315.326565 1198.8692 318.920171 1201.26945 317.737375M1208.27495 326.181159C1221.49776 319.555597 1234.71819 312.932415 1247.941 306.306852 1250.34364 305.102637 1248.23151 301.511411 1245.8384 302.710867 1232.61559 309.336429 1219.39278 315.959611 1206.17234 322.585173 1203.76971 323.789388 1205.87946 327.380614 1208.27495 326.181159M1080.33774 360.889204C1056.0852 369.29015 1054.15167 402.103818 1078.06131 412.434839 1080.50205 413.489122 1082.62608 409.902656 1080.16392 408.838854 1059.89037 400.078547 1060.19754 372.267369 1081.445 364.904047 1083.96908 364.030634 1082.88325 360.006272 1080.33774 360.889204M1092.66761 411.30678C1095.12024 410.592819 1097.31095 409.27199 1099.04685 407.394272 1100.86846 405.426118 1097.92768 402.472698 1096.1013 404.450371 1094.83688 405.814037 1093.35101 406.768366 1091.56035 407.291937 1088.98627 408.041597 1090.08162 412.05882 1092.66761 411.30678M1170.59243 315.866796C1159.68176 311.997125 1147.51144 330.874265 1144.82068 339.149078 1140.64406 352.007524 1148.81872 366.255814 1161.2986 370.139764 1163.8703 370.939401 1164.96327 366.919798 1162.40586 366.122541 1151.15706 362.62413 1146.47562 351.210267 1148.84015 340.255719 1150.09981 334.420274 1161.47957 317.042453 1169.48517 319.881639 1172.02353 320.78361 1173.10698 316.759248 1170.59243 315.866796M1169.06608 369.954134C1173.76419 370.496745 1178.36467 368.771338 1181.65787 365.4062 1183.53902 363.485644 1180.59348 360.539363 1178.71233 362.459919 1176.11206 365.118235 1172.74027 366.215356 1169.06608 365.789359 1166.39913 365.479976 1166.43009 369.649511 1169.06608 369.954134M1190.42784 359.889658C1192.64236 357.424111 1193.87582 354.525428 1194.18299 351.234065 1194.4354 348.55909 1190.26592 348.582889 1190.01589 351.234065 1189.81587 353.36643 1188.90863 355.353623 1187.48229 356.945757 1185.69163 358.937709 1188.63003 361.89113 1190.42784 359.889658M260.735279 355.791519C221.388303 373.381149 192.078092 418.186989 199.078824 462.126555 206.586753 509.23135 263.866559 532.220909 306.168606 519.298207 348.546852 506.354086 371.794524 463.387887 365.008099 420.9405 361.486302 398.91241 348.713536 378.590688 331.209323 365.0278 311.819198 350.006052 284.756841 351.736218 261.802057 355.341724 256.125272 356.234175 258.544573 364.832651 264.176115 363.947339 285.618836 360.579821 309.730884 359.589794 327.651808 373.473964 342.408114 384.904487 351.478111 402.137136 355.738081 419.990931 365.124778 459.354005 341.03178 497.605679 303.794548 510.692592 263.376031 524.898044 209.656122 498.029296 207.243965 453.263914 205.177082 414.876588 231.060744 378.776318 265.242893 363.497543 270.491062 361.15099 265.945348 353.461625 260.735279 355.791519"/><path d="M264.68093 374.233143C228.214493 387.848388 210.291189 426.687889 223.792602 463.180838 237.247106 499.550033 281.882731 515.316682 315.929152 498.576666 346.763332 483.419265 350.937579 434.431991 338.498181 406.420904 332.285626 392.42726 322.253623 382.950612 308.590288 376.279833 294.936478 369.613813 279.089581 371.893729 264.68093 374.233143 260.899582 374.84715 262.509274 380.58026 266.264429 379.971013 292.188571 375.761021 316.674468 379.204695 330.797375 404.010095 344.879802 428.748858 341.224657 467.064788 321.298762 487.446007 308.116429 500.927979 285.854575 501.537226 268.876607 497.013091 251.696237 492.436598 238.451994 479.792341 230.670227 464.208943 214.274939 431.378616 233.21335 392.310647 266.264429 379.971013 269.826707 378.640665 268.283688 372.888516 264.68093 374.233143M356.154791 400.299875C366.901154 395.749561 378.171382 392.665247 389.739259 391.118331 388.303395 390.02597 386.869911 388.933609 385.434047 387.841248 387.119938 394.2907 388.517703 400.773469 389.639249 407.341915 390.322654 405.661725 391.006059 403.983916 391.691845 402.303727 381.474108 406.87308 370.91586 410.235838 359.983764 412.60381 354.356984 413.822304 356.742948 422.42554 362.35544 421.209425 374.06619 418.672482 385.267363 414.898006 396.197078 410.00975 398.12347 409.148237 398.561612 406.794544 398.249674 404.969183 397.128128 398.400738 395.730363 391.917968 394.044472 385.468516 393.594425 383.743109 391.653746 381.936787 389.739259 382.193813 376.485491 383.964437 363.962752 387.379553 351.647177 392.593851 346.360909 394.83093 350.918529 402.517915 356.154791 400.299875"/><path d="M268.948043 405.299985C261.206757 406.071063 255.408531 411.837492 255.282327 419.731525 255.153742 427.585101 262.197337 433.308692 269.540962 433.508601 288.002419 434.008374 288.588194 400.890083 270.100545 405.235728 267.485985 405.849735 268.595625 409.866958 271.210185 409.252951 283.32812 406.401865 282.223242 431.235824 267.438361 429.198654 255.74428 427.587481 258.075476 410.547601 268.948043 409.46476 271.595939 409.200594 271.622133 405.033439 268.948043 405.299985M297.224813 431.064473C292.159997 429.524696 289.828801 435.37204 289.238263 439.322627 288.483422 444.377474 290.862242 448.999184 296.162797 449.825 301.025211 450.584179 304.866089 447.028651 305.992397 442.530694 307.34492 437.128385 303.437368 431.995003 298.670202 429.974492 296.227089 428.936868 294.100676 432.523334 296.567601 433.570478 301.172845 435.521972 304.756554 441.928586 299.313127 445.331802 296.603319 447.026271 293.531569 444.622601 293.243444 441.892888 293.119621 440.731511 293.707778 434.348696 296.117554 435.079316 298.694014 435.864674 299.786986 431.845071 297.224813 431.064473M265.885818 450.681753C259.868521 450.546101 258.820793 458.780456 260.394767 463.049945 262.318778 468.271383 268.136053 470.948739 273.279449 468.602185 278.677633 466.139018 281.420777 460.220278 278.744307 454.753713 276.229758 449.620331 269.243312 447.921102 264.416616 450.427107 262.030652 451.66702 264.138016 455.260626 266.519218 454.023093 269.198069 452.633248 272.174571 453.599476 274.241455 455.605707 277.089372 458.366358 275.396337 462.388341 272.54842 464.308897 269.800513 466.162817 266.540648 465.334622 264.802371 462.650127 263.890371 461.241243 262.747394 454.775132 265.885818 454.846528 268.574195 454.906025 268.569432 450.74125 265.885818 450.681753M.799734636 32.5026433C29.1312719 73.2627015 56.2793519 114.841435 83.5750665 156.296416 86.723015 161.079958 94.4595392 156.615319 91.2853974 151.791319 63.9896829 110.336339 36.8416028 68.7576048 8.51006558 27.9975467 5.25020052 23.3068201-2.49584845 27.7619394.799734636 32.5026433M31.3893654 41.1677552C53.608358 75.2094363 75.4320712 109.501004 96.8652672 144.042458 99.8917745 148.921194 107.618774 144.444656 104.575598 139.537361 83.1424021 104.995907 61.318689 70.7043397 39.0996964 36.6626586 35.9684162 31.8648378 28.231892 36.3318565 31.3893654 41.1677552"/><path d="M83.2490799 152.364868C69.9072071 163.495527 58.9512983 174.633325 56.77488 192.49902 54.3603415 212.344768 69.0214001 233.247179 78.4985827 249.33273 90.192664 269.178478 103.165451 288.250768 116.940702 306.701911 123.1985 315.079059 129.730136 323.251537 136.37607 331.321681 140.216948 335.981469 145.315101 345.541413 151.75387 346.738488 153.558821 347.07405 155.961454 346.598076 156.797255 344.689419 156.94489 344.349097 157.092524 344.011156 157.240159 343.673214 158.249788 341.369498 157.866415 338.999146 155.639991 337.568844 155.394728 337.411772 155.149464 337.254701 154.906581 337.097629 150.046549 333.975238 145.572271 341.70268 150.398967 344.803653 150.64423 344.960724 150.887113 345.117796 151.132377 345.274867 150.598987 343.237697 150.065598 341.202907 149.529828 339.168117L149.086924 340.184322C150.768053 339.501299 152.4468 338.815896 154.127928 338.132873 150.177515 337.397493 142.624343 324.929346 139.945491 321.678442 133.78056 314.193746 127.868036 306.504382 122.067429 298.736481 111.733014 284.895149 102.108197 270.532625 92.9381895 255.898795 83.380046 240.646199 73.1861218 224.793876 67.6022039 207.592165 60.5967086 186.004351 74.2671873 171.434778 89.5640267 158.676287 93.9882994 154.982727 87.6352534 148.704626 83.2490799 152.364868M104.861104 144.259026C117.269546 131.938432 145.160561 134.130293 156.261723 146.012991 169.203554 159.866223 180.042784 176.729992 191.308249 191.968309 212.634291 220.805211 232.553757 250.686877 248.917375 282.641411 251.541459 287.765274 259.244647 283.248278 256.627706 278.136314 235.644557 237.159688 208.712452 199.881382 180.890492 163.336076 170.26557 149.37813 160.750288 131.738523 142.284069 128.018784 129.16603 125.374746 108.328134 128.237732 98.5461575 137.947607 94.4576342 142.007668 100.772581 148.316707 104.861104 144.259026"/><path d="M155.030404 345.855556C188.45295 325.431499 220.194368 302.313428 255.025157 284.240684 260.137597 281.589508 255.620458 273.888244 250.517542 276.534661 215.686753 294.607404 183.945335 317.725476 150.522789 338.149532 145.619895 341.14579 150.103698 348.866093 155.030404 345.855556M110.291911 164.454615C90.2850546 168.957332 121.693104 212.699369 126.493607 219.822324 144.264515 246.1913 166.004886 269.597335 181.596994 297.45849 182.263731 298.653186 183.671021 299.12678 184.959251 298.826917 189.538302 297.755974 201.287151 294.578846 199.882242 287.562985 198.682116 281.579988 193.731598 276.498963 190.333623 271.591668 185.192609 264.168849 179.889673 256.857884 174.565306 249.563578 154.213175 221.676244 132.99905 194.436236 113.654168 165.820661 111.515849 162.662572 106.358166 165.635032 108.513153 168.824059 122.826556 189.995396 138.101965 210.46705 153.391661 230.936324 161.459172 241.736181 169.483822 252.566975 177.356074 263.509624 180.885015 268.41216 184.340139 273.364672 187.778594 278.329084 189.502584 280.832709 191.212287 283.343473 192.905321 285.866137 190.836057 288.015161 188.764411 290.164184 186.695147 292.313208 184.785423 291.465974 183.542436 289.980934 182.963804 287.862849 171.414976 268.107536 156.496748 250.44889 142.742927 232.233354 138.671072 226.842945 101.555282 172.51524 111.87541 170.192485 115.618659 169.350011 114.030397 163.612141 110.291911 164.454615M88.8499044 187.358498C109.156792 231.359941 145.979694 264.913748 166.665193 308.698623 168.30346 312.166096 173.434949 309.143659 171.806207 305.695225 151.120709 261.910351 114.295425 228.356543 93.9909187 184.3551 92.3836076 180.875728 87.2544992 183.900545 88.8499044 187.358498"/><path d="M85.8388749 182.910518C74.4305377 208.841598 98.8878599 238.342484 113.941817 257.529007 124.750091 271.301323 136.117948 284.657162 147.238159 298.177212 151.87674 303.819887 160.918163 319.241454 170.123889 312.304128 173.148015 310.024212 170.1858 304.855131 167.118812 307.165986 161.551563 311.361699 125.250143 262.126919 120.68538 256.493763 107.062525 239.670452 80.7431033 209.179539 90.9798892 185.913916 92.5086207 182.436924 87.3818935 179.404968 85.8388749 182.910518M124.280756 161.577351C152.095573 202.753886 181.174807 243.04511 211.497029 282.415323 213.804414 285.409201 218.978765 282.453401 216.638043 279.411925 186.315822 240.041712 157.236587 199.752868 129.421771 158.573953 127.285833 155.413484 122.125769 158.388323 124.280756 161.577351"/><path d="M128.022338 162.634014C143.890666 153.333476 155.177562 177.50821 162.00923 187.672641 169.040918 198.134556 176.070225 208.596471 183.101914 219.058386 190.133602 229.5203 197.165291 239.982215 204.196979 250.44413 207.711633 255.675088 211.226286 260.906045 214.743321 266.137002 219.086633 272.603113 217.379312 272.995792 211.957315 277.565145 209.018913 280.042591 213.252689 284.228785 216.16728 281.772758 219.008053 279.376227 221.848827 276.982077 224.691982 274.587926 225.656368 273.77163 225.851627 272.015285 225.156316 270.982421 206.699622 243.518704 188.242928 216.054988 169.786234 188.591271 160.570984 174.880832 146.095659 145.144338 125.017262 157.495871 121.709773 159.435466 124.702943 164.578369 128.022338 162.634014M576.24926 710.076555C590.738872 717.401799 603.499732 728.092182 617.253552 736.697797 631.857462 745.834123 647.156683 753.820972 662.777366 761.062921 666.23487 762.666954 669.261378 757.538331 665.782442 755.924778 650.130804 748.66855 634.979218 740.557948 620.258629 731.562034 606.388129 723.080172 593.772523 712.277936 579.254336 704.938412 575.837312 703.210626 572.822711 708.344008 576.24926 710.076555M598.234895 741.326647C606.535764 750.90087 616.605866 758.454581 628.133263 763.725997 631.597911 765.310991 634.624418 760.182368 631.138339 758.587854 620.030034 753.509209 610.445697 746.348175 602.444859 737.119034 599.925548 734.215591 595.734633 738.442243 598.234895 741.326647M992.304719 302.84176C992.16899 331.124152 987.363725 358.640225 977.965122 385.306685 976.686417 388.933609 982.4394 390.480525 983.706199 386.88692 993.276249 359.730207 998.121994 331.626305 998.257768 302.84176 998.276772 299.003027 992.323768 299.005407 992.304719 302.84176M1003.54161 329.477281C1001.48663 344.579945 997.748146 359.182836 992.295194 373.419227 990.918859 377.008073 996.676605 378.54547 998.03389 374.999462 1003.48684 360.765451 1007.22533 346.162559 1009.28269 331.059895 1009.79226 327.309218 1004.05595 325.690905 1003.54161 329.477281M1075.3277 157.717199C1052.7801 171.356242 1036.27123 191.749361 1027.51317 216.583319 1026.23446 220.210243 1031.98744 221.75716 1033.25424 218.163554 1041.48844 194.812255 1057.14722 175.66857 1078.33277 162.855342 1081.61169 160.870529 1078.6209 155.725247 1075.3277 157.717199M1113.92936 445.139033C1125.56153 442.878155 1134.87679 433.225396 1136.56744 421.478351 1137.10797 417.725294 1131.37404 416.109361 1130.82636 419.895736 1129.4024 429.788862 1122.18736 437.487746 1112.34586 439.401163 1108.58118 440.134163 1110.17896 445.867273 1113.92936 445.139033M1132.15269 451.043494C1138.35096 451.081572 1143.49674 447.323755 1145.84698 441.704878 1146.47562 440.207939 1145.18263 438.434935 1143.76819 438.047016 1142.05373 437.573421 1140.73454 438.630084 1140.10829 440.124644 1138.79148 443.268454 1135.4578 445.112854 1132.15269 445.093815 1128.31181 445.070016 1128.31419 451.019695 1132.15269 451.043494M507.075352 337.26898C555.939991 335.826778 601.994812 313.02285 632.50753 274.802114 634.876826 271.836795 630.693055 267.595864 628.297566 270.594502 598.73971 307.620541 554.485077 329.919937 507.075352 331.319301 503.24638 331.433535 503.234474 337.383214 507.075352 337.26898M586.662255 333.623017C600.966133 328.135033 613.946063 320.517065 625.704437 310.697715 628.652365 308.234548 624.418588 304.048354 621.494473 306.490103 610.559995 315.621669 598.382529 322.782702 585.078756 327.885147 581.533146 329.246433 583.071403 335.000962 586.662255 333.623017M199.303372 388.193469C187.559285 394.623882 182.45637 413.570038 179.579878 425.714522 175.898541 441.264602 177.058186 457.635738 181.394354 472.890714 182.442083 476.574755 188.185541 475.008799 187.135431 471.310479 183.351702 458.004618 182.527806 444.741594 184.589927 431.071613 186.268674 419.940954 191.476362 399.262251 202.308448 393.331611 205.675467 391.487211 202.670391 386.349069 199.303372 388.193469M867.615475 825.851351C891.739429 840.11868 917.399258 851.449248 944.342555 859.231428 955.360375 862.413316 966.628221 863.391443 977.472213 859.252846 987.187516 855.542627 993.647716 846.063599 999.386412 837.924439 1002.71295 833.207533 994.964521 828.757174 991.676081 833.419342 984.744403 843.252971 977.893686 851.761011 965.08044 853.167515 954.960333 854.278915 944.023474 849.949929 934.56296 846.882275 912.698766 839.785498 891.87992 829.830496 872.12309 818.145327 867.155903 815.208566 862.664957 822.924109 867.615475 825.851351M955.622307 227.828212C956.810527 219.800905 957.341535 211.852135 957.039122 203.734393 956.960542 201.637727 955.710412 200.112229 953.760207 199.431586 941.451776 195.147817 928.719491 193.591381 915.741942 194.817015 910.060395 195.354866 910.008008 204.284144 915.741942 203.741533 927.997987 202.584915 939.761123 203.99142 951.386149 208.037201 950.293178 206.604518 949.202587 205.169456 948.109616 203.734393 948.381073 211.031079 948.081042 218.225431 947.011882 225.45548 946.178461 231.083876 954.781743 233.504205 955.622307 227.828212"/><path d="M950.962296 200.345456C962.851635 144.668364 978.319921 87.8846316 973.87898 30.4678532 973.438458 24.7680611 964.504189 24.7252234 964.949474 30.4678532 969.330885 87.1206928 954.086432 143.026253 942.35187 197.972725 941.154126 203.584461 949.759789 205.973852 950.962296 200.345456M572.403619 529.119936C578.697135 505.673443 563.066928 487.453147 545.915132 473.671311 535.628341 465.403638 525.146291 457.554822 515.571479 448.437535 505.894276 439.227432 483.58956 415.626247 496.459955 402.091918 506.601493 391.427714 528.649039 395.126034 540.936039 397.784351 556.501955 401.151869 570.143859 410.071627 583.900061 417.649138 602.825852 428.077734 624.754338 435.75282 642.932431 420.062327 647.297174 416.294991 640.953652 410.01213 636.617484 413.753288 613.091212 434.058351 578.106597 402.408441 555.718539 393.086485 535.985521 384.868789 504.525085 380.658796 488.173373 397.855747 471.762132 415.116955 497.529115 443.009048 509.256533 454.748954 528.403775 473.916438 572.694126 493.588456 563.793194 526.747204 562.2978 532.313724 570.912987 534.672176 572.403619 529.119936"/><path d="M542.417147 408.486633C530.734972 404.559845 512.133024 403.943458 513.323625 421.214185 514.385641 436.626233 539.197762 445.867273 551.072815 449.8131 562.064442 453.466203 576.906472 453.932658 574.156184 438.425415 571.346366 422.568332 556.266216 413.377269 542.417147 408.486633 538.788196 407.206262 537.240415 412.956031 540.833648 414.224503 548.117744 416.794764 554.537463 419.924295 560.195198 425.243308 565.243346 429.988771 574.806252 448.470853 559.709433 445.93867 550.410841 444.379854 541.53134 440.086566 533.468591 435.38156 529.651525 433.154 526.210688 430.459986 523.072265 427.368533 520.319596 414.048392 524.019983 408.979266 534.171046 412.156394 536.423662 412.741843 538.645324 413.429626 540.833648 414.224503 544.48403 415.450137 546.036573 409.702747 542.417147 408.486633M626.835508 235.172495C646.211346 226.833426 666.49204 232.30951 685.303533 239.420566 704.524593 246.686313 723.128921 256.067766 741.802305 264.625784 778.568058 281.472894 815.126647 298.776939 851.511409 316.433205 856.669091 318.93683 861.198137 311.242706 856.019023 308.727182 814.033676 288.353102 771.803064 268.497835 729.329571 249.163759 696.697583 234.310982 658.548351 211.878313 622.327893 227.466471 617.053531 229.736869 621.606389 237.423853 626.835508 235.172495M664.739476 134.765719C669.306621 154.985107 682.26512 167.89353 697.440518 181.175592 714.092261 195.747545 732.648966 208.06338 751.593806 219.420126 790.485973 242.730967 832.037941 261.227328 870.899152 284.607185 875.847289 287.584404 880.333473 279.866481 875.406767 276.901161 839.857808 255.513256 802.201485 237.978364 766.121517 217.542407 747.50052 206.997197 729.436725 195.423882 712.601629 182.194177 695.571275 168.80978 678.309944 154.349681 673.349901 132.392987 672.083102 126.78125 663.472676 129.161122 664.739476 134.765719"/><path d="M852.578187 316.883001C863.493615 318.56319 876.487833 318.667905 883.093286 307.989422 889.572536 297.515607 887.029412 282.493859 875.404386 276.901161 870.241941 274.416575 865.710514 282.1107 870.899152 284.607185 878.16658 288.103216 879.921525 297.617942 875.009106 303.967439 870.344332 309.998033 861.688664 309.31501 854.952245 308.277386 849.320703 307.411113 846.901402 316.009588 852.578187 316.883001M703.503057 183.536424C696.299922 200.002755 687.877612 215.793202 678.214696 230.950603 676.145432 234.196748 681.298352 237.176347 683.353329 233.951621 693.018627 218.7966 701.440937 203.006153 708.644072 186.539822 710.16566 183.06045 705.036551 180.028494 703.503057 183.536424M715.761484 191.171052C704.660321 204.883871 696.266586 220.057932 690.625519 236.771769 689.394438 240.417732 695.14504 241.969408 696.366596 238.354383 701.669532 222.640092 709.53226 208.272808 719.971448 195.378665 722.362175 192.425244 718.176022 188.186693 715.761484 191.171052"/><path d="M860.831432,284.538168 C855.461822,284.666681 851.542364,288.474476 850.887534,293.710193 C850.26604,298.667465 854.935576,303.650916 859.755129,303.893663 C864.991391,304.157829 869.991915,300.321476 870.268134,294.897749 C870.544353,289.445463 866.798723,283.848006 860.840957,284.923708 C857.069133,285.604351 858.671682,291.337461 862.424456,290.659198 C864.481814,290.287938 864.443715,294.812073 864.022242,295.79496 C863.369793,297.313318 861.467213,298.196251 859.874189,297.943984 C855.264182,297.213364 856.423828,290.594941 860.831432,290.487847 C864.662785,290.395032 864.67231,284.445353 860.831432,284.538168"/></g></svg>