<svg xmlns="http://www.w3.org/2000/svg" width="608" height="420" viewBox="0 0 608 420"><g fill="#F97316" fill-rule="evenodd"><path d="M406 180C410 180 410 174 406 174 402 174 402 180 406 180M421 170C425 170 425 164 421 164 417 164 417 170 421 170M387 165C391 165 391 159 387 159 383 159 383 165 387 165M564 256C568 256 568 250 564 250 560 250 560 256 564 256M579 245C583 245 583 239 579 239 575 239 575 245 579 245M580 265C584 265 584 259 580 259 576 259 576 265 580 265M179 333C183 333 183 327 179 327 175 327 175 333 179 333M162 301C166 301 166 295 162 295 158 295 158 301 162 301M145 341C149 341 149 335 145 335 141 335 141 341 145 341M213 351C217 351 217 345 213 345 209 345 209 351 213 351M183.470796 313 182.529204 313C180.606494 313 179 314.3644 179 316 179 317.6356 180.606494 319 182.529204 319L183.470796 319C185.394918 319 187 317.6356 187 316 187 314.3644 185.394918 313 183.470796 313M208 220C212 220 212 214 208 214 204 214 204 220 208 220M106 269C110 269 110 263 106 263 102 263 102 269 106 269M196 236C200 236 200 230 196 230 192 230 192 236 196 236M212 254C216 254 216 248 212 248 208 248 208 254 212 254M394 63C398 63 398 57 394 57 390 57 390 63 394 63M409 80C413 80 413 74 409 74 405 74 405 80 409 80M566 391C570 391 570 385 566 385 562 385 562 391 566 391M582 367.470796 582 366.529204C582 364.606494 580.6356 363 579 363 577.3644 363 576 364.606494 576 366.529204L576 367.470796C576 369.394918 577.3644 371 579 371 580.6356 371 582 369.394918 582 367.470796M583 304C584.333333 304 584.333333 302 583 302 581.666667 302 581.666667 304 583 304M569 272C570.333333 272 570.333333 270 569 270 567.666667 270 567.666667 272 569 272M509 226C510.333333 226 510.333333 224 509 224 507.666667 224 507.666667 226 509 226M232.824311 345 232.175689 345C230.608104 345 230.608104 347 232.175689 347L232.824311 347C234.391896 347 234.391896 345 232.824311 345M209 315.824311 209 315.175689C209 313.608104 207 313.608104 207 315.175689L207 315.824311C207 317.391896 209 317.391896 209 315.824311M186 352C187.333333 352 187.333333 350 186 350 184.666667 350 184.666667 352 186 352M368 142C369.333333 142 369.333333 140 368 140 366.666667 140 366.666667 142 368 142M402 156C403.333333 156 403.333333 154 402 154 400.666667 154 400.666667 156 402 156M421 54.8243112 421 54.1756888C421 52.6081037 419 52.6081037 419 54.1756888L419 54.8243112C419 56.3918963 421 56.3918963 421 54.8243112M382 79C383.333333 79 383.333333 77 382 77 380.666667 77 380.666667 79 382 79M191 213C192.333333 213 192.333333 211 191 211 189.666667 211 189.666667 213 191 213M215 241C216.333333 241 216.333333 239 215 239 213.666667 239 213.666667 241 215 241M330.056174 169.004805C305.310772 209.972276 278.516004 249.619001 251.315536 288.983952 249.717076 291.297287 253.486612 293.467995 255.068843 291.177852 282.269312 251.81406 309.06408 212.167335 333.809482 171.199863 335.263048 168.792604 331.503945 166.609141 330.056174 169.004805"/><path d="M251.315536 288.983952C242.570955 302.773513 254.97843 315.757755 266.127075 322.760375 282.573007 333.08979 299.919594 342.20282 317.079559 351.271787 351.57336 369.503645 386.906382 386.092398 422.344885 402.386621 424.872977 403.549666 427.083465 399.801948 424.539144 398.631946 393.011592 384.13621 361.603432 369.373773 330.742387 353.496994 315.310706 345.558604 300.0471 337.295536 284.963162 328.714747 273.29522 322.07855 243.716189 309.079813 255.068843 291.179011 256.57573 288.80306 252.81199 286.624235 251.315536 288.983952M454.471714 221.940158C474.345235 232.874867 494.06343 244.09019 513.346946 256.040679 523.290082 262.202613 533.079051 268.609216 542.717332 275.236136 547.432729 278.478283 552.319679 281.638101 556.558668 285.497137 562.652287 291.044502 561.065419 296.838853 557.600738 303.335902 537.560301 340.912803 506.621594 371.099788 482.737436 406.074621 481.150568 408.397232 484.920104 410.5691 486.490744 408.26968 499.502133 389.216849 514.407563 371.611156 528.683578 353.518446 535.323153 345.103475 541.763356 336.53544 547.814087 327.685632 554.079259 318.5239 561.034122 308.588737 564.779316 298.076111 567.686448 289.912765 561.082806 283.287004 555.245358 278.784409 544.995049 270.880806 533.868428 263.915292 522.96784 256.956736 501.382264 243.177612 479.095406 230.526745 456.665974 218.185483 454.208589 216.833429 452.015489 220.589263 454.471714 221.940158M333.502308 172.497418C339.225001 163.746172 350.411898 166.351717 358.339283 170.036818 366.440539 173.80193 374.202165 178.493534 382.060001 182.736387 398.187169 191.444728 414.316655 200.148432 430.440345 208.862571 432.905844 210.194913 435.100103 206.440237 432.633445 205.107896 412.466661 194.207974 392.292923 183.323127 372.121502 172.430163 359.842692 165.799764 340.154635 154.390793 329.749001 170.302359 328.209658 172.657438 331.974557 174.832784 333.502308 172.497418M354.784189 233.727148C329.994739 225.335368 303.728541 244.857823 300.976733 270.139843 299.619376 282.619094 309.031624 293.789195 318.464736 300.555263 329.076697 308.166307 343.406033 309.322395 354.676388 302.622769 357.082771 301.191865 354.897785 297.432551 352.482129 298.868094 331.922395 311.089573 301.520372 290.573718 305.812681 266.795655 309.648288 245.548924 333.326119 231.04739 353.628522 237.920139 356.291076 238.821122 357.424718 234.621173 354.784189 233.727148"/><path d="M352.761483,302.804821 C364.763258,308.08363 377.503407,305.621407 388.985885,300.129702 C400.617894,294.567263 406.906249,284.540495 407.339768,271.770193 C407.767492,259.208613 402.622053,245.962889 393.266604,237.554875 C381.866424,227.308949 368.061022,229.730123 354.959219,234.734811 C352.367374,235.723921 353.490584,239.929667 356.113727,238.927802 C367.030543,234.758002 377.152186,232.19884 387.713146,238.77126 C397.53573,244.883333 401.867451,257.175894 402.878224,268.136113 C403.989843,280.19676 398.731967,289.640267 388.350675,295.563331 C378.499112,301.182588 365.608273,303.735953 354.955742,299.050146 C352.414899,297.932324 350.200934,301.678882 352.761483,302.804821"/><path d="M351.069133 243.058176C333.902213 237.343834 313.189473 251.976399 312.592513 270.194343 312.287659 279.507978 318.696565 287.369836 325.649109 292.701522 334.587267 299.555717 342.813711 298.553852 352.334918 293.485388 353.984379 292.606437 352.520381 290.104093 350.872078 290.981885 346.825507 293.135199 342.934262 294.907016 338.281458 295.104143 334.201272 295.276918 330.293798 292.420907 327.11079 290.198018 320.426007 285.528445 315.932007 278.378561 315.490373 270.194343 315.073081 262.449601 320.932553 256.272592 326.069878 251.272543 332.68743 244.831153 341.607042 242.960773 350.298302 245.85389 352.077588 246.445269 352.83335 243.644917 351.069133 243.058176M360.228687 246.513683C366.484586 241.246934 376.368605 244.726792 382.69753 248.067502 390.17169 252.012346 394.99025 259.358197 395.765718 267.715191 397.208852 283.269611 376.148368 295.676968 362.463516 291.412084 360.673798 290.854333 359.914559 293.653525 361.692686 294.207798 378.140936 299.33308 401.532458 283.942159 398.450295 265.596663 396.85879 256.123008 390.993523 249.171409 382.61639 244.749983 375.361309 240.919936 364.947561 238.766622 358.179321 244.46357 356.747778 245.669519 358.808736 247.709196 360.228687 246.513683"/><path d="M349.234208 244.456613C349.153068 248.942974 350.086179 260.107277 345.963104 262.971405 342.593473 265.312569 339.125315 266.893058 336.068653 269.736314 335.289708 270.459884 335.657157 271.922096 336.707341 272.158648 340.100155 272.921642 343.119725 274.171655 346.056995 276.032758L346.056995 273.529255C343.293596 275.197871 340.850121 277.063613 338.513287 279.284182 337.788822 279.971805 338.069335 281.038605 338.80655 281.56041 340.81071 282.980879 342.996855 283.363535 345.378896 283.834319 349.590065 284.666888 348.596679 289.87334 350.351623 292.965903 351.273142 294.590455 353.776893 293.130561 352.853055 291.50253 351.392534 288.927134 352.489084 284.679643 349.821894 282.695625 346.939103 280.550428 343.192751 281.129052 340.26939 279.056907 340.366758 279.816423 340.464126 280.574779 340.562653 281.334295 342.716342 279.287661 344.983628 277.563386 347.519834 276.032758 348.47381 275.457614 348.440195 274.112517 347.519834 273.529255 344.341462 271.516248 341.148021 270.189705 337.478172 269.362934 337.691454 270.171152 337.904737 270.97821 338.118019 271.786427 341.977968 268.19641 348.138817 266.521997 350.857009 261.919679 351.797075 260.329914 351.485265 257.716252 351.515403 255.998934 351.584952 252.146856 352.062519 248.31217 352.132068 244.456613 352.165683 242.586233 349.267823 242.589712 349.234208 244.456613M357.105954 246.131027C357.338942 251.565913 356.828918 258.910605 358.698617 264.059079 360.028155 267.719829 363.642365 267.509947 367.175436 268.30425 366.962153 267.496033 366.748871 266.688974 366.535588 265.880757 364.511723 268.007401 362.487858 270.132886 360.463993 272.25953 359.617818 273.148917 360.189276 274.766512 361.488676 274.734044 364.080522 274.670268 366.416197 275.04017 368.865467 275.888972 368.528157 275.294115 368.190846 274.699257 367.853535 274.105559 366.769735 277.147101 362.412514 277.432355 361.317123 280.987584 360.122046 284.864014 360.350397 288.808858 360.628592 292.809361 360.757257 294.663507 363.656275 294.676263 363.526451 292.809361 363.251734 288.858719 362.768371 284.619346 364.526792 280.924968 365.85633 278.130414 369.516906 278.049244 370.648231 274.875511 370.926425 274.096283 370.338739 273.335608 369.636298 273.093258 366.848557 272.128499 364.437538 271.762076 361.488676 271.835129 361.830624 272.659581 362.171412 273.484032 362.513359 274.309643 364.537225 272.182999 366.56109 270.057514 368.584955 267.93087 369.303624 267.175992 369.043976 265.755524 367.946266 265.508536 362.814737 264.355927 361.309009 262.271028 360.756097 257.114437 360.364307 253.465282 360.160298 249.797575 360.003813 246.131027 359.923832 244.268763 357.025973 244.260646 357.105954 246.131027M358.538655 235.274009C357.825782 230.927955 355.951446 227.123419 353.065178 223.814017 350.960173 221.40096 346.344463 218.611044 343.377054 221.327907 336.161384 227.935115 349.476469 236.17847 354.405149 238.422231 356.092862 239.189864 357.567293 236.692158 355.867988 235.918728 352.322167 234.304612 342.450899 229.31036 344.697319 224.173482 346.521812 220.004842 352.230595 227.30663 353.038518 228.546206 354.515267 230.809679 355.31044 233.40131 355.74396 236.04512 356.046496 237.886511 358.838874 237.102645 358.538655 235.274009"/><path d="M358.604727 235.250818C357.57077 230.057121 358.674275 224.429746 362.229369 220.382861 364.28569 218.041697 364.858307 224.583969 364.858307 224.559618 364.903514 226.061256 364.296123 227.516511 363.615705 228.808268 362.178367 231.542525 359.156479 233.29347 356.409308 234.422887 354.706526 235.124425 355.451855 237.929415 357.180139 237.218601 364.524474 234.196772 371.842149 225.503505 365.32892 217.89907 362.407877 214.488786 358.747301 220.003683 357.602067 222.073508 355.257119 226.311722 354.880398 231.350037 355.810031 236.021929 356.175161 237.854044 358.968698 237.075975 358.604727 235.250818M391.474567 315.120689C390.976135 319.510806 394.39445 323.773372 398.981182 324.116603 406.264083 324.66044 412.087621 319.059735 417.823065 315.367677 425.464141 310.449957 433.521349 306.189595 441.458007 301.778605 445.737566 299.400335 449.975396 296.952491 454.15295 294.397967 456.788843 292.78617 460.639519 290.761567 462.098881 287.829025 464.134337 283.742714 463.849188 279.375788 459.413144 277.186527 454.053263 274.541556 445.872027 280.079644 441.396572 282.311809 423.995506 290.992321 407.827768 301.978051 391.723783 312.814312 390.182122 313.850964 391.631052 316.363744 393.186623 315.316656 402.754196 308.879904 412.336837 302.469707 422.162899 296.429527 432.046918 290.35456 443.381027 282.572711 454.722089 279.735253 460.103994 284.085945 460.549105 287.422017 456.059741 289.741149 454.950441 290.482112 453.82723 291.199883 452.69011 291.894463 450.319661 293.378708 447.897051 294.779464 445.476759 296.18022 440.027624 299.331921 434.479961 302.314325 428.986779 305.389494 424.106783 308.121548 419.300973 310.971761 414.598327 313.998229 412.401749 315.4129 410.27588 316.93425 408.103644 318.384868 404.423363 320.843148 393.32572 324.341559 394.372427 315.120689 394.583391 313.264224 391.683213 313.285096 391.474567 315.120689M406.541118 328.833486C406.669783 330.811706 407.821972 335.725947 410.737219 335.18327 418.482618 333.73961 426.129489 331.939964 433.706812 329.779692 441.276021 327.62174 448.69686 324.970971 456.001784 322.048865 459.326209 320.718842 465.983171 319.481585 466.808482 315.40571 467.46108 312.178638 466.155884 305.976235 463.85962 303.604922 461.515831 301.187226 452.810661 305.957682 450.425143 306.793613 435.426982 312.045288 420.890159 318.596836 406.876111 326.074878 405.226649 326.954989 406.690648 329.457333 408.33895 328.578382 417.719901 323.571375 427.312975 319.023557 437.137878 314.955799 441.773294 313.036717 446.473622 311.278815 451.195974 309.588167 453.219839 308.863438 455.258773 308.181613 457.297707 307.499789 460.316117 306.489922 462.425759 305.180772 463.072561 309.20667 463.309027 310.674681 464.546992 315.090308 462.779298 316.026078 459.751614 317.628599 456.419076 318.778888 453.238385 320.050932 448.58906 321.910876 443.853957 323.551662 439.093354 325.103162 434.331591 326.655821 429.50028 327.984684 424.649263 329.221941 421.622738 329.994212 409.81454 334.630157 409.438978 328.833486 409.318427 326.97818 406.419408 326.966585 406.541118 328.833486M419.511937 343.635812C431.844068 340.551366 444.176199 337.46576 456.50833 334.380155 455.913689 334.042721 455.320208 333.705287 454.725567 333.367854 458.199521 341.645996 450.41587 347.021745 443.275544 348.566287 435.192835 350.314913 425.291428 349.177378 419.851567 342.470448 418.672717 341.018671 416.636102 343.082699 417.8022 344.520561 424.50437 352.782469 436.249974 353.04801 445.905642 350.959631 454.08456 349.190133 461.064924 341.045341 457.520263 332.597902 457.208453 331.855779 456.580197 331.374559 455.737499 331.5856 443.405369 334.670046 431.073238 337.755652 418.741107 340.840098 416.929365 341.293488 417.697877 344.089202 419.511937 343.635812M342.066063 254.59354C339.983081 253.268156 337.357621 253.55109 335.523855 255.160568 335.183067 255.458577 335.147133 256.015168 335.365053 256.389708 336.477831 258.302992 338.718456 259.078742 340.826938 258.565054 341.594291 258.377204 342.914556 257.690741 343.069881 256.809471 343.255344 255.754266 342.512333 254.613253 341.321893 255.063164 340.110587 255.520034 340.63452 257.482019 341.860894 257.019353 341.930443 256.993842 341.999992 256.967172 342.06954 256.940502 341.809892 256.906875 341.549085 256.872088 341.288277 256.83846 341.279004 256.829184 341.268572 256.818748 341.25814 256.808311 341.224524 256.548569 341.18975 256.287666 341.156135 256.026764 341.037902 256.702791 339.665476 256.722504 339.180954 256.696993 338.315073 256.65177 337.538447 256.0917 337.116519 255.365811 337.063198 255.775138 337.011037 256.185624 336.957716 256.594951 338.124974 255.571054 339.757048 255.52815 341.042539 256.345645 342.149521 257.050661 343.16609 255.293918 342.066063 254.59354M330.882643 261.895328C328.724318 261.941711 326.809412 263.116351 325.911076 265.103848 325.691998 265.587387 325.748796 266.215872 326.275047 266.491848 328.449601 267.630542 331.605949 268.031752 333.642565 266.351541 334.471353 265.668556 335.152929 264.702638 334.996445 263.576699 334.759979 261.867499 333.131382 262.075061 331.741569 261.881413 330.463033 261.70284 329.911281 263.657869 331.202567 263.837601 331.990785 263.94776 332.780162 264.057919 333.56838 264.166918 333.331914 263.931526 333.095449 263.694975 332.860143 263.458423 333.380598 264.717712 331.528287 265.289378 330.609086 265.408813 329.456897 265.559557 328.313981 265.270825 327.298571 264.739744 327.420281 265.202411 327.541991 265.665078 327.662542 266.127744 328.271092 264.781488 329.381552 263.957037 330.882643 263.924569 332.188999 263.896739 332.191317 261.867499 330.882643 261.895328M331.195612 275.005383C329.147405 275.795047 327.332186 276.881561 325.678088 278.325221 325.231817 278.713675 325.346573 279.356075 325.678088 279.759604 327.71934 282.245714 330.99624 280.826405 333.071107 279.212289 334.032037 278.465528 335.023105 277.309441 334.465557 276.015365 333.98799 274.907979 332.806822 274.39893 331.736932 275.004223 330.598653 275.646623 331.619859 277.399887 332.760456 276.756328 332.346642 276.9894 331.852847 277.610928 331.452942 277.903139 331.061152 278.188392 330.650815 278.43422 330.230045 278.671931 329.18218 279.259831 327.90944 279.296937 327.111949 278.325221L327.111949 279.759604C328.490171 278.557134 330.027195 277.620204 331.734614 276.961571 332.942442 276.496585 332.418509 274.534599 331.195612 275.005383M338.976945 285.679189C337.241706 286.643948 335.330278 288.343872 334.757661 290.32789 334.12245 292.532225 335.979399 293.236081 337.815483 292.909084 339.699091 292.57281 341.513151 290.971449 342.128657 289.172962 342.756913 287.33389 342.089246 284.962577 339.7953 285.0078 338.488945 285.033311 338.486627 287.062551 339.7953 287.037041 341.168886 287.010371 339.881077 289.217025 339.507832 289.656501 338.927101 290.338326 338.128451 290.733738 337.276481 290.951736 337.136224 290.972608 336.994809 290.992321 336.854552 291.012034 336.490581 291.085086 336.448852 291.023629 336.731683 290.828822 336.927578 290.364996 337.226637 289.939435 337.514105 289.528949 338.141202 288.633764 339.058085 287.955417 340.000469 287.431293 341.144544 286.795851 340.12102 285.042587 338.976945 285.679189M367.934675 256.485952C368.423834 255.733394 368.989496 255.100271 369.658322 254.504254 370.007224 254.19349 370.40597 253.949981 370.802397 253.707632 371.088705 253.533697 371.390083 253.389911 371.706529 253.277433 372.338262 253.045519 372.573568 253.100019 372.412447 253.439772 371.071318 254.666593 369.15989 255.070122 367.402628 254.911261 366.098591 254.792986 366.110183 256.823386 367.402628 256.940502 369.157572 257.099363 370.819784 256.717865 372.377673 255.910807 373.592456 255.282322 375.129481 254.100725 374.374878 252.56314 372.4762 248.689029 367.479131 253.468761 366.183209 255.462055 365.466858 256.562483 367.22412 257.578263 367.934675 256.485952M372.235098 263.210276C373.149663 262.972565 374.063068 262.734854 374.977633 262.497143 375.525908 262.354516 376.075342 262.21073 376.623617 262.068103 377.213621 261.915041 378.087616 262.200294 378.553591 261.949828 377.559046 262.484388 373.515952 263.81557 372.932903 262.100571 372.514452 260.867953 370.55434 261.396715 370.977427 262.63977 371.456154 264.048642 372.727735 264.758297 374.183619 264.845264 375.961746 264.951944 378.896698 264.640021 380.240146 263.296084 381.298444 262.2374 380.014112 260.164096 378.764555 259.954214 376.448586 259.56576 373.921653 260.674305 371.696097 261.254088 370.430312 261.582245 370.968154 263.539593 372.235098 263.210276M376.718667 271.793385C377.735236 271.53828 378.699643 271.446674 379.742873 271.48494 380.332877 271.505812 383.632959 272.0195 382.109844 272.941355 380.267965 274.056858 377.504566 272.218945 376.47061 270.794998 375.711371 269.74675 373.950631 270.757892 374.719144 271.818895 376.652595 274.483578 381.663574 276.969688 384.276284 273.734498 385.343856 272.410274 384.506954 270.784562 383.088162 270.204779 380.877675 269.300317 378.475929 269.259733 376.179665 269.837197 374.911561 270.154918 375.449404 272.112265 376.718667 271.793385M370.408288 281.491996C371.089864 283.195398 372.269873 284.487155 373.958745 285.237394 375.433176 285.892549 377.508044 286.13026 378.723985 284.876769 379.986293 283.575736 378.567501 281.689122 377.470951 280.89134 375.709052 279.607701 373.604047 279.015162 371.431812 279.192576 370.137048 279.296937 370.126616 281.327337 371.431812 281.221817 373.202984 281.076871 376.32224 281.555772 377.131322 283.474854 377.277374 283.822724 375.856264 283.697491 375.824967 283.694012 375.284806 283.620959 374.780578 283.407599 374.303011 283.155973 373.422062 282.690987 372.731212 281.868855 372.363763 280.952797 371.885037 279.752647 369.922607 280.275611 370.408288 281.491996"/><path d="M400.248127 317.246869C414.379249 308.69391 428.51153 300.141298 442.642652 291.589498 443.760067 290.912311 442.741179 289.157887 441.619128 289.837393 427.488006 298.389193 413.355725 306.941805 399.224603 315.494765 398.107188 316.170792 399.126075 317.926375 400.248127 317.246869M451.775546 284.933588C450.377618 285.799784 448.929848 286.569736 447.431075 287.245763 446.239475 287.782642 447.272272 289.531268 448.454599 288.997867 449.954531 288.323 451.401142 287.551888 452.79907 286.685692 453.908371 285.99807 452.890642 284.242487 451.775546 284.933588M444.17504 236.906678C453.058718 240.726289 461.969056 244.478645 470.908373 248.163746 472.11852 248.662359 472.638975 246.699214 471.447375 246.207558 462.670338 242.588552 453.921121 238.90461 445.198564 235.154574 444.010442 234.643205 442.976485 236.391831 444.17504 236.906678M375.656891 205.665647C393.654917 214.321808 411.789721 222.685759 430.058987 230.75402 431.243632 231.278144 432.276429 229.529518 431.082511 229.001916 412.813245 220.933655 394.678441 212.569704 376.680415 203.913543 375.507361 203.348834 374.478042 205.098619 375.656891 205.665647M488.137887 257.798581C492.925151 260.578061 497.712415 263.356381 502.499679 266.135861 503.633321 266.794495 504.653368 265.040071 503.523203 264.383757 498.735939 261.604277 493.948675 258.825957 489.161411 256.046477 488.027768 255.387843 487.007722 257.142267 488.137887 257.798581M530.229876 308.67095C525.072845 299.388739 514.748351 295.496076 505.303647 291.938527 499.286532 289.673894 493.083953 288.179214 486.678525 287.652771 482.882329 287.339688 476.198706 287.219093 473.36344 290.545888 467.05422 297.94392 480.41683 303.484327 485.272483 306.349615 496.135979 312.76074 507.720462 317.941682 520.458293 318.700038 521.765808 318.777729 521.758853 316.748488 520.458293 316.670797 511.387993 316.130439 503.10707 313.282545 494.982631 309.329584 491.425219 307.598352 487.995312 305.600535 484.589748 303.591007 482.889284 302.587982 481.210844 301.547852 479.530085 300.513519 478.113611 299.686748 476.757413 298.770691 475.46149 297.765347 473.649749 293.519016 474.478536 291.030587 477.945535 290.30122 486.664615 287.052115 498.55859 291.559349 506.744463 294.641476 515.056683 297.771145 523.967022 301.575681 528.478409 309.694847 529.11362 310.839339 530.866246 309.815442 530.229876 308.67095"/><path d="M510.677438 301.731063C507.400539 300.234063 504.062204 299.403814 500.468859 299.191613 497.965108 299.043189 494.091249 298.892445 492.79069 301.496831 490.035405 307.013235 506.583342 309.949256 509.125344 310.444391 510.40388 310.692538 510.948678 308.737509 509.665505 308.487043 505.163391 307.610411 500.471177 306.445859 496.368967 304.334289 496.091932 303.418232 495.813737 302.502174 495.535543 301.586117 496.426924 301.400587 497.32642 301.286949 498.234029 301.242886 499.349126 301.153599 500.470018 301.220854 501.583955 301.286949 504.378651 301.451608 507.125821 302.32824 509.653914 303.483167 510.833922 304.022366 511.86556 302.27374 510.677438 301.731063M498.453108 330.474736C503.637958 333.684415 509.126504 336.220386 514.923382 338.105841 516.17062 338.512849 516.700349 336.553182 515.462384 336.149653 509.827786 334.316379 504.513111 331.840705 499.476632 328.722632 498.361535 328.03153 497.343807 329.788273 498.453108 330.474736M319.184564 325.661957C347.860623 338.325579 376.820671 350.329407 406.047323 361.663007 407.269827 362.137269 407.792994 360.174124 406.586325 359.706818 377.523112 348.435836 348.724185 336.502741 320.208088 323.909852 319.023443 323.386888 317.989487 325.134354 319.184564 325.661957M371.348353 336.082746C375.776283 339.642614 380.455746 342.812868 385.420359 345.576114 386.565593 346.212715 387.587958 344.459451 386.445042 343.824009 381.633436 341.146571 377.074524 338.098072 372.782214 334.647203 371.773759 333.836666 370.328307 335.262933 371.348353 336.082746M277.568984 294.803815C281.921569 298.747499 286.77954 301.944423 292.144058 304.340087 293.327544 304.868849 294.360341 303.121383 293.167582 302.587982 287.960708 300.261893 283.23256 297.201798 279.004004 293.368272 278.036119 292.4928 276.597621 293.923704 277.568984 294.803815M286.540757 292.816319C288.575054 294.634518 290.609351 296.451558 292.643649 298.269758 293.61617 299.138273 295.055827 297.708528 294.078669 296.834215 292.044371 295.017175 290.008915 293.198975 287.974617 291.381935 287.003255 290.512261 285.563598 291.943165 286.540757 292.816319M421.994823 255.597724C431.403594 260.727645 440.812364 265.857566 450.222293 270.987486 451.371005 271.614811 452.394529 269.861547 451.245817 269.235382 441.837047 264.105461 432.427118 258.975541 423.018347 253.84562 421.869636 253.219454 420.846112 254.971559 421.994823 255.597724M452.155745 380.467806C456.61729 384.559915 461.696658 387.67451 467.356757 389.819707 468.583131 390.284693 469.107064 388.322707 467.895759 387.863519 462.569493 385.843555 457.789184 382.883183 453.589606 379.033423 452.627517 378.150993 451.190178 379.581898 452.155745 380.467806M450.69986 14.7396052C446.322933 52.6655346 442.019033 90.599581 437.673402 128.530149 435.442051 148.014338 432.983507 167.485773 431.179879 187.015186 429.204698 208.412659 428.919548 229.905218 428.666674 251.378063 428.634399 254.183054 432.981188 254.179575 433.013644 251.378063 433.266338 229.894782 433.632627 208.427734 435.526668 187.015186 437.254952 167.482294 439.787681 148.0097 442.020192 128.530149 446.366981 90.6007406 450.669723 52.6655346 455.04665 14.7396052 455.367733 11.9566465 451.017466 11.9879548 450.69986 14.7396052"/><path d="M432.377274,252.914488 C450.258227,236.655052 461.718681,216.071594 468.646884,193.084355 C472.660999,179.76094 475.165909,166.010805 477.430876,152.301254 C479.659909,138.806224 481.042768,125.48049 479.663387,111.808046 C479.385192,109.045959 475.034925,109.018129 475.316597,111.808046 C477.917716,137.595637 471.975945,165.041407 465.06513,189.821336 C458.624927,212.918733 447.135493,233.625106 429.303225,249.839319 C427.22488,251.729412 430.308203,254.795305 432.377274,252.914488"/><path d="M443.323069 109.703433C454.711657 111.129699 466.101404 112.555966 477.489992 113.982232 480.2673 114.330102 480.233685 109.977091 477.489992 109.633859 466.101404 108.207593 454.711657 106.781326 443.323069 105.35506 440.54692 105.00719 440.580535 109.360201 443.323069 109.703433M447.950371 120.863097C446.059808 149.012725 442.96953 177.054513 438.671425 204.93744 438.474371 206.217601 440.428687 206.767235 440.62806 205.477798 444.952826 177.415138 448.075559 149.193617 449.978873 120.863097 450.066968 119.556266 448.037307 119.564383 447.950371 120.863097M437.278134 212.249664C436.724064 215.399045 436.335751 218.565821 436.117831 221.755787 436.028577 223.062618 438.058238 223.054501 438.146333 221.755787 438.351502 218.745553 438.711995 215.76083 439.23361 212.788862 439.459643 211.509861 437.504167 210.962545 437.278134 212.249664M435.236882 226.921654C435.001576 227.829594 434.76627 228.737535 434.532123 229.644315 434.202926 230.912881 436.159561 231.44976 436.487598 230.184673 436.722905 229.276733 436.958211 228.368793 437.192358 227.460852 437.521555 226.193447 435.56492 225.655408 435.236882 226.921654M542.552733 82.0373447C527.708738 86.855342 516.634278 98.1599522 512.208667 113.136908 508.592138 125.376129 509.955291 147.04726 524.398223 151.998608 539.272356 157.09722 553.227289 146.579955 560.364137 134.145927 564.15106 127.549156 566.085671 119.741797 566.024236 112.16983 565.95121 103.170437 561.604421 94.5699355 558.431844 86.3636859 557.432662 83.7766939 553.228448 84.9003135 554.24038 87.5197734 559.337136 100.7052 564.01544 112.039959 559.229335 126.158836 555.062213 138.452556 542.986253 150.737 529.067254 148.820237 513.108163 146.622859 513.590366 123.801438 516.955361 112.413339 520.683167 99.7972596 531.450454 90.2099668 543.7084 86.2303358 546.362839 85.3687782 545.226878 81.1688297 542.552733 82.0373447"/><path d="M546.086963 84.5976667C558.461982 57.0579711 571.741133 29.9415172 585.910507 3.28193225 587.226135.807418124 583.473987-1.38995969 582.1572 1.08687356 567.987826 27.747618 554.708674 54.8629124 542.333655 82.402608 541.194217 84.9385792 544.93941 87.1521909 546.086963 84.5976667M558.212766 88.0380994C572.251157 65.8080571 585.843277 43.2591342 598.018923 19.9460571 599.314846 17.463426 595.563857 15.2648886 594.265616 17.7509984 582.089969 41.0640755 568.497849 63.6129985 554.459458 85.8430408 552.957208 88.2213109 556.719789 90.4012952 558.212766 88.0380994M542.482026 94.360054C524.735534 98.8522132 513.457065 122.020344 525.206146 137.40083 525.988568 138.425886 527.751626 137.417064 526.957613 136.376933 516.002545 122.035419 526.444112 100.512712 543.021027 96.316242 544.289131 95.9962018 543.751288 94.0388542 542.482026 94.360054M531.353086 142.688451C533.983183 143.418978 536.650373 143.110533 539.059074 141.835011 540.215899 141.2216 539.190057 139.470655 538.03555 140.082906 536.102098 141.106803 533.995934 141.316684 531.892088 140.732263 530.62978 140.380915 530.094256 142.338262 531.353086 142.688451M544.825814 138.301813C546.55062 137.309224 547.792063 135.789033 548.495664 133.936046 548.96048 132.710385 546.999209 132.185101 546.539029 133.395688 546.025528 134.748902 545.047211 135.833096 543.80229 136.549708 542.668648 137.201384 543.689853 138.955808 544.825814 138.301813M110.868457 16.822186C101.240609 40.977108 104.757451 72.7909644 114.696529 96.3347951 120.26042 109.515583 126.978817 122.3543 136.875587 132.822863 147.542028 144.105441 161.871364 149.169266 176.907777 151.419984 209.144725 156.244939 243.834422 153.696212 273.230308 138.854926 286.082895 132.364834 297.982665 123.001337 306.752747 111.540186 316.732975 98.4997051 322.852095 83.3209844 327.253364 67.6100229 332.128723 50.208414 334.606972 32.1481715 332.040628 14.1609817 331.64536 11.3942569 327.458533 12.5746952 327.849164 15.3170691 330.502444 33.9072333 327.149041 52.4846423 321.95144 70.3408012 317.055217 87.1637866 309.407186 103.052162 297.28602 115.856091 273.10628 141.396695 236.63382 149.56004 202.699886 149.081139 185.609469 148.83879 167.081715 147.508768 151.837815 139.120466 138.104279 131.562414 129.403746 117.284676 122.725918 103.621509 110.427982 78.4624023 104.392321 44.7422193 115.059341 17.9782734 116.099093 15.3715687 111.89256 14.2502683 110.868457 16.822186"/><path d="M208.621951,49.6135566 C194.234658,49.4581747 183.425643,61.3924293 184.388891,75.6771245 C185.341707,89.7902039 198.725182,99.0736903 212.008969,98.67364 C227.732755,98.200537 237.038362,85.1299076 235.776054,70.3060142 C234.594886,56.4202098 221.731868,47.2190525 208.237116,49.665737 C206.399873,49.9985325 207.179976,52.7919273 209.006787,52.4602914 C220.448695,50.3869872 230.517019,57.9079331 232.706641,69.0745549 C235.478154,83.2131448 225.89899,94.4365853 212.008969,95.7747247 C200.072107,96.9250143 189.964373,88.2259492 187.473373,76.9375729 C184.595219,63.9005709 196.120585,52.3779622 208.621951,52.5124719 C210.49165,52.5321845 210.489332,49.6332692 208.621951,49.6135566"/><path d="M255.748102 35.6083168C252.4202 25.3345609 244.637708 22.7916324 234.775713 25.809983 228.5117 27.7267458 222.853919 31.1161576 216.475151 32.7407098 211.245094 34.0730513 205.868985 32.1783202 200.827868 30.9294675 196.857801 29.9449959 192.767182 29.4765311 188.69511 29.1982353 174.544283 28.2323167 170.235745 37.8532369 163.188151 48.0910462 159.544962 53.3844656 153.185899 57.5136806 150.759811 63.5979241 148.33836 69.6740506 149.948411 75.6423375 153.134897 81.1050535 154.756539 83.8845336 157.155967 86.2396124 159.265608 88.635276 162.599306 92.4212594 163.60892 96.631644 164.078373 101.527332 164.620853 107.180217 164.525803 114.305751 168.889979 118.647167 177.28218 126.993724 193.307343 129.158634 203.992331 124.407891 210.842871 121.361711 214.983332 114.368368 221.97181 111.905449 229.232687 109.347446 238.182436 112.608146 245.676301 112.49103 257.964385 112.299702 265.379427 101.841575 266.010002 90.3873804 266.481773 81.8263037 261.861426 73.0924516 256.766989 66.5582964 254.124141 63.1677251 251.356106 59.9592056 253.287239 55.4345785 254.189053 53.3218491 254.925109 51.2021622 255.566116 48.9978269 256.845811 44.5937948 256.761193 40.0366999 255.748102 35.6083168 255.123323 32.8752195 250.931859 34.0347856 251.556638 36.7644043 252.598708 41.3180205 252.078252 45.4194059 250.789284 49.8524272 250.047432 52.4057918 247.729145 55.5957582 247.943586 58.405387 248.458246 65.1795723 254.278307 69.9488678 257.545934 75.5913166 261.444134 82.3214384 262.762081 90.011681 260.28499 97.4317447 257.295559 106.385914 248.879015 108.58909 240.423061 107.984956 234.331761 107.550119 228.549952 106.381276 222.440105 107.315886 215.539722 108.372251 211.559222 114.410112 206.309459 118.256393 200.18918 122.740435 191.901302 123.018731 184.74243 121.660879 180.958985 120.944267 177.325069 119.475097 174.062079 117.457452 169.781361 114.810162 169.11949 109.422818 168.697561 104.926021 168.167833 99.2800931 167.844432 94.0632051 164.985983 89.0353263 160.919707 81.8808033 153.924274 78.0669903 153.84777 68.90062 153.792131 62.2319552 162.440503 56.3146892 166.104557 51.4074054 169.781361 46.482728 172.27352 40.7243226 176.769839 36.4397258 182.344161 31.1277533 193.065082 33.6718414 199.672202 35.1224586 207.587995 36.8594887 213.763913 38.3332972 221.708685 35.7532626 231.426946 32.5980832 246.636072 21.5752475 251.556638 36.7644043 252.416722 39.4198107 256.615141 38.2834359 255.748102 35.6083168M281.59469 60.5343504C279.148897 61.4272163 277.892385 63.630392 278.255197 66.1883948 278.618009 68.7556743 281.583099 70.55764 284.01846 70.1170049 286.368044 69.6914441 289.210265 67.3444823 288.433638 64.6322571 287.546893 61.5385347 284.496027 60.8810607 281.665398 60.623637 280.36252 60.5053612 280.374112 62.534602 281.665398 62.6528777 283.163012 62.7885469 284.671058 62.938131 285.83252 63.9886979 287.398523 65.4033686 285.85918 67.347961 284.389386 67.9451375 280.834292 69.3911165 278.365315 63.8669434 282.133692 62.4905384 283.351952 62.0464246 282.825701 60.0844387 281.59469 60.5343504M263.522479 57.2678526C261.67944 58.8065968 261.061617 61.2300901 262.195259 63.3799257 263.244285 65.3709007 265.665736 65.8463228 267.544708 64.8664894 269.371519 63.9156452 270.242036 61.4504076 269.405134 59.5869849 268.453477 57.4707767 266.212852 56.486305 263.988455 56.8248983 262.699487 57.020865 263.248921 58.9770531 264.528616 58.782246 266.914134 58.4181422 268.700374 61.0410808 266.873564 62.8615996 265.920748 63.8124438 264.612074 63.3474578 263.946726 62.3560288 263.085482 61.0735486 263.936293 59.5556766 264.95634 58.7022359 265.962477 57.86271 264.519343 56.4352841 263.522479 57.2678526M278.125373 82.7052548C276.50373 83.699003 275.350382 85.3873313 275.599598 87.3504767 275.844178 89.2811543 277.461183 90.7769946 279.436364 90.6146554 281.166966 90.4708692 282.62401 89.0921451 282.93466 87.4072955 283.303268 85.4186395 281.985321 83.4357815 280.215309 82.6333617 279.032982 82.0976422 278.001344 83.8462679 279.191785 84.3854661 281.010482 85.2110772 281.807972 87.8711219 279.444478 88.5680212 278.448774 88.862551 277.699967 87.9175046 277.586371 87.0257982 277.446114 85.9184126 278.27722 84.9919192 279.148897 84.4573592 280.262834 83.7755343 279.243946 82.0199512 278.125373 82.7052548M230.340829 125.15813C224.715504 126.52178 226.449583 134.798763 232.033179 134.147087 234.540407 133.854876 236.472699 131.705041 236.451835 129.189942 236.428652 126.286388 233.148275 125.037536 230.805645 124.65256 229.52711 124.441519 228.978835 126.396547 230.266643 126.608748 231.601977 126.829065 232.887468 127.108521 233.876217 128.095311 235.238211 129.455482 233.920265 131.378043 232.506109 131.960145 229.177048 133.330753 227.124205 128.024578 230.879831 127.114318 232.151411 126.807033 231.612409 124.849686 230.340829 125.15813M135.00241 63.4599357C132.415201 62.1890513 130.285854 64.7215437 129.917247 67.1148882 129.520819 69.6856463 130.979022 72.1624795 133.545367 72.7584965 139.568278 74.1569333 140.771469 63.2303416 134.981546 62.7201325 133.678668 62.6053355 133.6891 64.6357358 134.981546 64.7493733 136.675055 64.8989573 136.720262 67.0337185 136.650713 68.2988052 136.578846 69.619551 135.919293 70.7338941 134.524843 70.8243402 130.393655 71.0933596 132.087164 64.2832277 133.978886 65.2120402 135.148463 65.787185 136.176623 64.0362401 135.00241 63.4599357M141.333654 86.478483C139.600734 84.1674677 137.431976 87.5186138 136.877905 89.0944642 136.01898 91.5365105 136.662304 95.4419292 139.881247 95.7271825 142.932113 95.9973614 144.769356 93.133233 145.07537 90.4372418 145.409203 87.4989012 142.910089 84.9640896 140.219717 84.3843066 138.944658 84.1094894 138.402179 86.0656774 139.680715 86.3416542 142.359496 86.9191181 143.777129 89.4840784 142.593643 92.0281665 141.647782 94.0655242 139.195034 94.1559703 138.504184 91.9029334 138.25149 91.080801 138.645599 90.0673402 138.974796 89.3344944 139.171851 88.8973379 139.992524 88.0496951 139.582188 87.5023799 140.356496 88.5367129 142.119553 87.5267308 141.333654 86.478483"/><path d="M122.068684 17.1306305C116.75401 34.2353905 115.283056 53.2000946 117.881856 70.9124673 120.7206 90.2691047 131.671031 108.462697 145.598144 121.866122 146.540528 122.772903 147.976707 121.339679 147.033164 120.431739 133.493205 107.400535 123.653233 90.5079753 120.103935 71.9572363 116.748214 54.4164795 118.75701 34.6226856 124.024159 17.6698288 124.413632 16.4174974 122.455838 15.8852565 122.068684 17.1306305M156.055939 128.786413C168.349818 138.534885 183.640084 141.387418 198.756478 143.832943 200.036173 144.040505 200.584448 142.085477 199.296639 141.876755 184.613765 139.500804 169.456801 136.841919 157.4898 127.35203 156.476708 126.54845 155.031256 127.973557 156.055939 128.786413M207.752593 144.137909C210.758253 144.611012 213.711752 144.537959 216.683796 143.882804 217.961173 143.60103 217.419853 141.644842 216.144795 141.925457 213.544835 142.499442 210.924011 142.595686 208.291595 142.181721 207.01306 141.979956 206.463626 143.934985 207.752593 144.137909M250.629323 136.489411C278.906636 124.643283 309.404868 106.769731 315.228406 73.9029883 315.455599 72.6239869 313.501282 72.0766716 313.272931 73.3637901 307.576898 105.512761 277.755606 122.943359 250.090321 134.533223 248.902198 135.030676 249.422654 136.994981 250.629323 136.489411M314.981509 17.4008095C315.61556 31.2147208 314.847048 44.9474625 312.635402 58.6001941 312.427915 59.8791955 314.382231 60.4288299 314.590877 59.1393923 316.831502 45.3115662 317.652176 31.3967727 317.01001 17.4008095 316.949735 16.0974571 314.921233 16.0916593 314.981509 17.4008095M199.03815 61.7878414C191.656723 69.6589763 193.682906 95.4442483 208.783072 88.8439979 220.64575 83.6607373 212.406556 57.3165544 199.732478 61.1315269 197.947396 61.6695656 198.708954 64.4675987 200.502149 63.9272409 205.356643 62.4661876 207.698114 66.6568596 209.378872 70.1715045 211.640362 74.9002152 212.75314 80.6087592 209.13777 84.9385792 206.250343 88.3964054 201.685635 86.7080771 199.405599 83.6120355 197.801344 81.4343703 197.717886 78.3870305 197.629791 75.8162724 197.483739 71.5537073 198.069106 67.0557503 201.087517 63.8379543 202.363734 62.4766237 200.319004 60.4218725 199.03815 61.7878414M218.720412 69.3795208C218.215025 72.0186933 218.077087 74.5117605 219.871442 76.6871066 221.34935 78.4786363 224.154478 78.3545627 225.856101 77.0222212 227.707254 75.5727635 228.182503 72.8779318 227.080157 70.8069467 225.851465 68.4959314 223.362783 67.3839075 220.804553 67.5868316 218.954559 67.7340965 218.940649 70.6341714 220.804553 70.4857469 221.868647 70.4010986 222.909558 70.5251722 223.777756 71.2069971 224.69348 71.9236089 225.165252 73.4693106 224.393262 74.4537822 223.598089 75.4684026 222.317235 75.2724359 221.66116 74.2705708 220.892648 73.0970898 221.271688 71.4191977 221.515108 70.1506323 221.86401 68.3243157 219.071633 67.5450872 218.720412 69.3795208M520.54407 168.382118C495.301396 176.670696 508.047341 220.379382 533.45925 209.415684 544.206832 204.778579 549.240993 194.018965 546.368635 182.747982 543.449911 171.290309 531.423794 165.540021 520.54407 168.382118 517.833992 169.090612 518.985022 173.284763 521.699736 172.575109 541.327518 167.447507 550.34218 194.067667 534.145463 204.282285 514.245283 216.834588 500.297305 179.603239 521.699736 172.575109 524.350698 171.704274 523.214737 167.505486 520.54407 168.382118M563.373274 145.197752C538.1306 153.486331 550.876545 197.195017 576.288454 186.231319 587.036036 181.594214 592.070197 170.8346 589.197839 159.563617 586.279115 148.105944 574.252998 142.355656 563.373274 145.197752 560.663196 145.906247 561.814226 150.100398 564.528941 149.390743 584.156723 144.263142 593.170225 170.883302 576.974668 181.09792 557.074487 193.650223 543.12651 156.418874 564.528941 149.390743 567.179902 148.519909 566.043942 144.32112 563.373274 145.197752"/><path d="M510.281011 192.441955C508.845991 191.102656 507.326353 192.247148 506.104616 193.31047 503.491906 195.586698 500.879196 197.861767 498.265326 200.137996 497.584909 200.730534 498.13898 201.878504 498.982836 201.869284 503.085046 201.826324 507.049318 201.089999 510.886084 199.627786 512.095071 199.166279 511.571249 197.204293 510.347082 197.670439 506.674914 199.071195 502.914652 199.799402 498.982836 199.839987 499.22162 200.417451 499.460403 200.994915 499.700346 201.572379 500.515224 200.862724 508.450723 193.506437 508.845991 193.876338 509.801125 194.768045 511.239623 193.335981 510.281011 192.441955M542.931773 177.020885C545.900341 175.616651 548.868908 174.212416 551.837475 172.808181 553.018643 172.249271 551.988164 170.499485 550.812792 171.056077 547.844225 172.460312 544.876817 173.864546 541.908249 175.268781 540.725923 175.827692 541.756402 177.577477 542.931773 177.020885M545.633738 182.042966C548.525801 180.388265 551.530302 179.015339 554.679696 177.924187 555.907229 177.499786 555.379819 175.53896 554.139535 175.967999 550.82902 177.11481 547.651807 178.550353 544.610214 180.290862 543.475412 180.940219 544.496617 182.693483 545.633738 182.042966M584.765273 154.814034C590.294389 152.090213 595.777139 149.275946 601.213524 146.371233 602.368031 145.754344 601.343348 144.003399 600.19 144.619129 594.753615 147.523842 589.270865 150.338109 583.741749 153.06193 582.567536 153.639394 583.596856 155.390339 584.765273 154.814034M588.175474 158.928175C594.6122 155.699943 601.047766 152.47287 607.484492 149.244638 608.654068 148.657898 607.625907 146.908112 606.460968 147.492534 600.024242 150.720766 593.587517 153.947838 587.15195 157.17607 585.982374 157.762811 587.009375 159.512596 588.175474 158.928175M525.896996 175.839287C514.091117 179.932556 513.149892 195.920654 524.788855 200.95433 525.976977 201.468018 527.010933 199.720552 525.812379 199.202226 515.943428 194.933863 516.092958 181.383173 526.435998 177.795475 527.66469 177.369915 527.136121 175.409088 525.896996 175.839287M531.899043 200.404696C533.092961 200.056826 534.159373 199.413267 535.004389 198.498369 535.891134 197.539408 534.459591 196.100386 533.570528 197.063986 532.955023 197.728417 532.231717 198.193403 531.360041 198.448508 530.107006 198.813771 530.640213 200.771119 531.899043 200.404696M569.832023 153.902615C564.520827 152.017161 558.596443 161.214839 557.28661 165.246651 555.253472 171.511786 559.232813 178.454109 565.307885 180.346521 566.559761 180.736135 567.091808 178.777628 565.846887 178.389173 560.371092 176.684611 558.092215 171.123332 559.243245 165.785849 559.856432 162.942593 565.39598 154.475441 569.293022 155.858803 570.528669 156.298279 571.056079 154.337453 569.832023 153.902615M569.089012 180.256075C571.376003 180.520456 573.615469 179.67977 575.218565 178.040144 576.134288 177.104374 574.700427 175.668831 573.784704 176.604601 572.518919 177.899836 570.877571 178.434396 569.089012 178.226834 567.790771 178.07609 567.80584 180.10765 569.089012 180.256075M579.487691 175.35227C580.565695 174.150959 581.166132 172.738607 581.315661 171.134927 581.43853 169.831575 579.40887 169.843171 579.287159 171.134927 579.189791 172.173899 578.748158 173.142136 578.05383 173.917886 577.182154 174.888443 578.612538 176.327465 579.487691 175.35227M126.923178 173.355497C107.769486 181.92585 93.501585 203.757001 96.9094677 225.166071 100.564248 248.117363 128.447452 259.318772 149.039642 253.022328 169.668924 246.715448 180.985645 225.780641 177.682085 205.098619 175.967711 194.365675 169.750064 184.46414 161.229198 177.855773 151.79029 170.536591 138.616621 171.379596 127.442475 173.136339 124.679076 173.571176 125.856766 177.760688 128.598141 177.32933 139.036231 175.688544 150.773721 175.206164 159.497437 181.971073 166.680651 187.540469 171.09583 195.936887 173.169538 204.635953 177.738883 223.815176 166.010666 242.452883 147.883975 248.829337 128.208669 255.750787 102.058384 242.659286 100.884172 220.847847 99.878035 202.144045 112.477928 184.554586 129.117437 177.110172 131.67219 175.96684 129.459385 172.220281 126.923178 173.355497"/><path d="M128.843879 182.340975C111.092404 188.974852 102.367528 207.898972 108.939873 225.679759 115.489384 243.400248 137.217534 251.082374 153.790972 242.925986 168.800725 235.540709 170.832704 211.6722 164.777337 198.024107 161.753131 191.205858 156.869658 186.588465 150.218491 183.338201 143.57196 180.090257 135.857859 181.201121 128.843879 182.340975 127.003159 182.640143 127.78674 185.433537 129.61471 185.136689 142.234309 183.085416 154.153784 184.763308 161.028666 196.849466 167.883843 208.903156 166.104557 227.572171 156.404841 237.502695 149.987821 244.071637 139.150986 244.368486 130.886291 242.164151 122.523068 239.934305 116.07591 233.77353 112.287829 226.180691 104.306776 210.184477 113.525794 191.149039 129.61471 185.136689 131.348789 184.488491 130.597664 181.68582 128.843879 182.340975M173.372388 195.041702C178.603604 192.824612 184.089832 191.321814 189.720953 190.568096 189.021989 190.035855 188.324184 189.503615 187.625221 188.971374 188.445894 192.113798 189.126312 195.272456 189.672269 198.472859 190.004943 197.654205 190.337617 196.836711 190.67145 196.018057 185.697564 198.244424 180.557921 199.882891 175.236292 201.036659 172.497235 201.630357 173.658697 205.822189 176.390799 205.22965 182.091468 203.993553 187.54408 202.154481 192.864551 199.772732 193.802298 199.352969 194.01558 198.206158 193.863732 197.316771 193.317776 194.116369 192.637358 190.957711 191.816685 187.815286 191.597606 186.974601 190.652904 186.09449 189.720953 186.219723 183.269158 187.08244 177.173221 188.746418 171.178129 191.287027 168.60483 192.377019 170.823431 196.122418 173.372388 195.041702"/><path d="M130.921065 197.477951C127.152689 197.85365 124.330173 200.663279 124.268739 204.50956 124.206145 208.336128 127.634892 211.124885 131.209692 211.222288 140.196534 211.465797 140.481683 195.329275 131.482091 197.446643 130.209351 197.745811 130.749512 199.703158 132.022252 199.40399 137.921134 198.01483 137.383292 210.114903 130.186168 209.122314 124.493613 208.337288 125.628414 200.034794 130.921065 199.507192 132.210033 199.37848 132.222784 197.348079 130.921065 197.477951M144.685898 210.031414C142.220399 209.281174 141.085597 212.130228 140.798129 214.055108 140.430681 216.518027 141.588665 218.769904 144.16892 219.172274 146.535891 219.542175 148.40559 217.809783 148.953865 215.618203 149.612259 212.985988 147.710104 210.484804 145.389498 209.500332 144.200216 208.994762 143.165101 210.742228 144.365974 211.252437 146.607758 212.203281 148.35227 215.324833 145.702467 216.983013 144.383361 217.808624 142.888066 216.637462 142.747809 215.30744 142.687534 214.741571 142.973842 211.631615 144.146896 211.987602 145.401089 212.370259 145.933136 210.411751 144.685898 210.031414M129.430406 219.589717C126.50125 219.523622 125.991227 223.535721 126.757421 225.615983 127.694009 228.160071 130.525797 229.464583 133.029548 228.32125 135.657327 227.121099 136.99266 224.237258 135.689783 221.573735 134.465727 219.072551 131.064799 218.244621 128.715214 219.465644 127.553752 220.069778 128.579595 221.820723 129.738738 221.217748 131.042775 220.540562 132.491705 221.011345 133.497842 221.98886 134.884178 223.333956 134.060026 225.293623 132.673691 226.229393 131.336039 227.132695 129.749171 226.729166 128.902996 225.421175 128.459044 224.734712 127.902655 221.584171 129.430406 221.618958 130.73908 221.647947 130.736761 219.618707 129.430406 219.589717M.389302369 15.8365547C14.1807953 35.6964439 27.3961937 55.9552237 40.6834591 76.1537062 42.2158472 78.4844341 45.9819054 76.309088 44.4367667 73.9586475 31.1495013 53.760165 17.9341029 33.5013852 4.14260999 13.6414961 2.55574213 11.3559912-1.21495265 13.526699.389302369 15.8365547M15.2800113 20.058535C26.0959821 36.644969 36.719535 53.3531573 47.1529884 70.1831002 48.6262601 72.5602107 52.3876818 70.3790668 50.906296 67.9880415 40.4728427 51.1580987 29.8492897 34.4499103 19.033319 17.8634763 17.5090449 15.525791 13.7429867 17.7022966 15.2800113 20.058535"/><path d="M40.5247723 74.2381029C34.0300896 79.6613937 28.696869 85.0881632 27.6374116 93.7930261 26.4620397 103.462648 33.5988881 113.647117 38.2122804 121.484625 43.9048356 131.154247 50.219851 140.44701 56.9254979 149.437126 59.9717278 153.518799 63.1512592 157.500749 66.3864296 161.432838 68.2561285 163.703268 70.7378554 168.361245 73.8721802 168.944507 74.7508112 169.108006 75.9203873 168.876093 76.3272468 167.946121 76.3991137 167.780303 76.4709806 167.615644 76.5428476 167.450986 77.0343245 166.328526 76.8477024 165.173598 75.7639029 164.476699 75.6445111 164.400167 75.5251193 164.323636 75.4068866 164.247105 73.0410741 162.725754 70.8630429 166.490865 73.2126274 168.00178 73.3320192 168.078311 73.4502519 168.154843 73.5696437 168.231374 73.3099955 167.238785 73.0503473 166.247356 72.7895399 165.255927L72.5739392 165.751062C73.3922947 165.418266 74.2094911 165.084311 75.0278466 164.751516 73.104827 164.39321 69.4280229 158.318243 68.1239861 156.734276 65.1229628 153.08744 62.2448088 149.340882 59.4211345 145.556058 54.3904504 138.812022 49.7051912 131.81404 45.2413284 124.683868 40.5885252 117.252209 35.6262306 109.528339 32.9080384 101.146995 29.4978373 90.6285702 36.1524819 83.5297063 43.5988217 77.3132723 45.7525108 75.5136257 42.6599152 72.4546902 40.5247723 74.2381029M51.0452773 70.2886207C57.0855757 64.2855468 70.662627 65.3535072 76.0665554 71.1432209 82.3665019 77.8930554 87.6429245 86.109741 93.1268338 93.5344429 103.508126 107.584906 113.204711 122.144418 121.170347 137.713912 122.447724 140.210458 126.197554 138.009602 124.923655 135.518854 114.70928 115.553444 101.599016 97.3900003 88.0555797 79.5837028 82.88348 72.7828474 78.2515414 64.1881433 69.2623813 62.3757414 62.8766581 61.0874634 52.7329907 62.4824215 47.971228 67.2134513 45.9809781 69.1916711 49.0550274 72.2656809 51.0452773 70.2886207"/><path d="M75.4671621 168.514308C91.7369045 158.562912 107.188291 147.298886 124.143551 138.493141 126.632233 137.201384 124.433337 133.449028 121.949292 134.738466 104.994032 143.544211 89.5426453 154.808236 73.2729029 164.759633 70.8862258 166.219527 73.0688936 169.981159 75.4671621 168.514308M53.6889366 80.1286989C43.9498104 82.322598 59.2389171 103.635423 61.575751 107.106005 70.2264412 119.953998 80.809424 131.358331 88.3994976 144.933371 88.7240579 145.515473 89.4091119 145.746227 90.0362087 145.600122 92.2652422 145.078317 97.9844577 143.530296 97.3005629 140.111895 96.7163544 137.196746 94.3064944 134.721072 92.6523962 132.330047 90.1498048 128.71336 87.5683915 125.151173 84.976546 121.597103 75.069344 108.009307 64.7425319 94.736913 55.3256476 80.7942898 54.2847365 79.2555456 51.774031 80.7038437 52.8230562 82.2576623 59.7906695 92.5731626 67.226577 102.54775 74.6694393 112.521179 78.5966185 117.78329 82.5029331 123.060475 86.3350625 128.39216 88.0529136 130.780867 89.7348313 133.193924 91.4086349 135.612779 92.247855 136.832642 93.0801203 138.055984 93.9042715 139.285125 92.8969756 140.332213 91.8885205 141.379301 90.8812245 142.426389 89.9515912 142.013584 89.3465181 141.290014 89.0648462 140.258001 83.4429988 130.632442 76.1809629 122.028461 69.4857483 113.153142 67.5036124 110.526725 49.436038 84.0561493 54.4597672 82.9244128 56.2819413 82.5139264 55.5087924 79.7182125 53.6889366 80.1286989M43.2511944 91.2883633C53.1363727 112.727581 71.0613724 129.076304 81.1308546 150.410002 81.9283456 152.09949 84.4263004 150.626841 83.6334461 148.94663 73.5639639 127.612932 55.6378051 111.264209 45.7537859 89.8249908 44.9713638 88.1297052 42.4745681 89.6035137 43.2511944 91.2883633"/><path d="M41.7854571 89.1211342C36.2319992 101.755767 48.1375651 116.129749 55.4656722 125.478171 60.7270259 132.18858 66.2607784 138.696065 71.6739799 145.28356 73.9319921 148.032891 78.3332611 155.54688 82.814511 152.166745 84.2866236 151.05588 82.8446487 148.537303 81.3516715 149.663241 78.6415933 151.707557 60.9704461 127.718452 58.7483674 124.973759 52.1169058 116.776786 39.3048894 101.920425 44.2880486 90.5845067 45.0322189 88.8903805 42.5365823 87.4130933 41.7854571 89.1211342M60.4985587 78.7267834C74.0385174 98.7895966 88.1939814 118.421051 102.954519 137.603754 104.077729 139.062488 106.596548 137.622307 105.45711 136.140381 90.6965729 116.957679 76.5411088 97.3273837 63.0011501 77.263411 61.9613981 75.7235071 59.4495335 77.1729648 60.4985587 78.7267834"/><path d="M62.3199213 79.2416308C70.0444556 74.7100463 75.5387972 86.4889191 78.8643808 91.441426 82.2873324 96.5388787 85.7091249 101.636331 89.1320765 106.733784 92.5550282 111.831237 95.9779798 116.92869 99.4009314 122.026142 101.111828 124.574869 102.822724 127.123595 104.534779 129.672321 106.649058 132.822863 105.817951 133.014191 103.178581 135.240558 101.748198 136.447666 103.809155 138.487343 105.227947 137.290671 106.610806 136.122988 107.993664 134.956464 109.377682 133.789941 109.847135 133.39221 109.942185 132.53645 109.603715 132.033198 100.619192 118.651805 91.634668 105.270412 82.6501444 91.8890186 78.1642579 85.2087581 71.1178227 70.7199793 60.8570818 76.7381275 59.2470311 77.6831739 60.7040749 80.1889963 62.3199213 79.2416308M280.51205 345.976976C287.56544 349.54612 293.777291 354.754891 300.472506 358.947882 307.581535 363.399457 315.029034 367.290961 322.633017 370.81952 324.316094 371.601068 325.789366 369.102203 324.095857 368.316017 316.476804 364.7805 309.101172 360.828699 301.935345 356.445539 295.183333 352.312845 289.042189 347.049574 281.974889 343.473472 280.311518 342.631627 278.844042 345.132812 280.51205 345.976976M291.214424 361.203239C295.2552 365.868173 300.157219 369.548636 305.768634 372.117075 307.455188 372.889346 308.92846 370.390481 307.231473 369.613572 301.824068 367.139058 297.158514 363.649923 293.263791 359.153126 292.037416 357.738455 289.997323 359.797844 291.214424 361.203239M483.04345 147.55631C482.977379 161.336594 480.638226 174.743497 476.063086 187.736436 475.440626 189.503615 478.241117 190.257333 478.857782 188.506388 483.516381 175.274579 485.875238 161.581262 485.941332 147.55631 485.950583 145.68593 483.052723 145.687089 483.04345 147.55631M488.513449 160.534174C487.513108 167.892781 485.693253 175.007878 483.038813 181.944403 482.368828 183.693029 485.171638 184.442108 485.83235 182.714355 488.486789 175.77899 490.306645 168.663892 491.308145 161.305285 491.556202 159.477809 488.763825 158.689304 488.513449 160.534174M523.458158 76.8459671C512.482225 83.4914406 504.445881 93.4277628 500.18255 105.527835 499.56009 107.295014 502.360581 108.048732 502.977246 106.297787 506.985565 94.9201244 514.608095 85.5925745 524.920997 79.3494704 526.517138 78.3823923 525.061253 75.8754103 523.458158 76.8459671M542.249038 216.889088C547.911455 215.7875 552.446026 211.0843 553.269018 205.360681 553.532143 203.532046 550.740925 202.7447 550.474322 204.58957 549.781154 209.409886 546.268948 213.161083 541.478207 214.093374 539.645601 214.45052 540.423386 217.243915 542.249038 216.889088M551.119965 219.765971C554.137216 219.784525 556.642126 217.95357 557.786201 215.215834 558.092215 214.486467 557.4628 213.62259 556.774269 213.433581 555.939685 213.202827 555.297519 213.717675 554.992665 214.445882 554.351658 215.977669 552.728857 216.876333 551.119965 216.867056 549.250266 216.85546 549.251425 219.754376 551.119965 219.765971M246.838922 164.330593C270.625712 163.627896 293.044712 152.516934 307.897981 133.894302 309.051329 132.449482 307.014714 130.383135 305.848615 131.844189 291.460163 149.884719 269.917475 160.749853 246.838922 161.431678 244.975019 161.487337 244.969223 164.386253 246.838922 164.330593M285.580986 162.554138C292.543962 159.880179 298.862455 156.168407 304.586307 151.384038 306.021327 150.183887 303.96037 148.14421 302.536941 149.333925 297.214153 153.78318 291.286291 157.272314 284.810155 159.758424 283.08419 160.421696 283.832997 163.225527 285.580986 162.554138M97.018775 189.14299C91.3018778 192.276137 88.8178326 201.507443 87.4175869 207.424709 85.6255506 215.001314 86.1900536 222.97797 88.3008545 230.410789 88.8108778 232.205797 91.6067326 231.442802 91.0955502 229.640837 89.2536707 223.157702 88.8526069 216.69544 89.8564255 210.034892 90.6736219 204.611602 93.2086693 194.536132 98.4816145 191.646493 100.120644 190.747829 98.6578043 188.244326 97.018775 189.14299M422.346044 402.386969C434.08933 409.338568 446.580263 414.859262 459.695975 418.651044 465.059334 420.201383 470.544402 420.677965 475.823143 418.66148 480.55245 416.853716 483.697207 412.235164 486.490744 408.269448 488.110067 405.971188 484.338213 403.802799 482.737436 406.074389 479.363168 410.865717 476.028312 415.011165 469.790959 415.696469 464.864598 416.237986 459.54065 414.128736 454.935372 412.634055 444.292114 409.176229 434.157719 404.325764 424.540303 398.632294 422.122329 397.201389 419.936184 400.960703 422.346044 402.386969M465.18684 111.006785C465.765252 107.095569 466.023741 103.222618 465.87653 99.2673378 465.838278 98.2457601 465.229728 97.5024782 464.280389 97.1708423 458.288775 95.0836232 452.090833 94.325267 445.773499 94.9224436 443.007782 95.1845055 442.982281 99.5351976 445.773499 99.2708165 451.739612 98.7072674 457.465783 99.392571 463.124723 101.363833 462.592676 100.665775 462.061788 99.9665562 461.529741 99.2673378 461.661883 102.822568 461.515831 106.327936 460.995376 109.850698 460.589675 112.593072 464.777662 113.772351 465.18684 111.006785"/><path d="M462.918395 97.6161157C468.706 70.4880661 476.235798 42.8208182 474.073995 14.8451257 473.859554 12.0679648 469.510446 12.0470926 469.727206 14.8451257 471.860031 42.4485974 464.439192 69.6879654 458.726931 96.4600282 458.143882 99.1942852 462.333028 100.35849 462.918395 97.6161157M278.640032 257.807858C281.70365 246.383812 274.09503 237.506174 265.745717 230.791126 260.738216 226.762793 255.635665 222.938544 250.974747 218.496247 246.263987 214.008726 235.406287 202.509308 241.671459 195.914856 246.608253 190.71884 257.340765 192.520806 263.321947 193.816041 270.89927 195.456827 277.540005 199.802881 284.236379 203.49494 293.449254 208.576158 304.123809 212.315759 312.972713 204.67074 315.097423 202.835146 312.009464 199.773892 309.898663 201.59673 298.446323 211.490148 281.416182 196.069078 270.517912 191.527057 260.912087 187.523076 245.597479 185.471803 237.637639 193.850828 229.64882 202.261161 242.191915 215.851276 247.900698 221.571416 257.221373 230.910562 278.781448 240.495535 274.448568 256.65177 273.720626 259.363995 277.914408 260.513125 278.640032 257.807858"/><path d="M264.042935 199.03061C258.356175 197.117326 249.300944 196.816998 249.880516 205.23197 250.397494 212.74132 262.475772 217.243915 268.256422 219.166476 273.60703 220.94641 280.831973 221.173685 279.493162 213.617952 278.125373 205.891763 270.784515 201.413518 264.042935 199.03061 262.276399 198.406763 261.522956 201.208275 263.272104 201.826324 266.817925 203.078655 269.942977 204.603485 272.697102 207.195115 275.154487 209.50729 279.809609 218.51248 272.460637 217.278702 267.93418 216.519186 263.611733 214.427329 259.686872 212.134867 257.828765 211.049513 256.153802 209.736884 254.62605 208.230608 253.28608 201.740516 255.08739 199.27064 260.02882 200.818661 261.12537 201.103914 262.206851 201.439029 263.272104 201.826324 265.049071 202.4235 265.804833 199.623148 264.042935 199.03061M305.136901 114.585206C314.568854 110.522087 324.441281 113.190248 333.598517 116.655032 342.955126 120.195187 352.011517 124.766197 361.101522 128.935997 378.998703 137.144566 396.795037 145.575771 414.506755 154.178592 417.01746 155.398456 419.222151 151.649578 416.701014 150.423917 396.26299 140.496871 375.705575 130.822611 355.029927 121.402296 339.14502 114.165443 320.574378 103.235373 302.942641 110.830531 300.375138 111.936757 302.591421 115.682156 305.136901 114.585206M323.588152 65.6631114C325.811389 75.5147852 332.11945 81.8042719 339.506673 88.2758105 347.612566 95.3758339 356.645774 101.376589 365.867922 106.910038 384.800217 118.267988 405.027277 127.280136 423.944503 138.671714 426.353204 140.122331 428.537031 136.361858 426.138763 134.917039 408.833905 124.496018 390.503205 115.952335 372.939858 105.995141 363.875353 100.857103 355.082089 95.2181329 346.886942 88.7721048 338.596745 82.2507049 330.194112 75.2051811 327.779616 64.5070239 327.162951 61.772767 322.971487 62.9323331 323.588152 65.6631114"/><path d="M415.026051 154.39775C420.339566 155.216404 426.665014 155.267425 429.880479 150.064451 433.034509 144.961201 431.796543 137.642019 426.137603 134.917039 423.62458 133.706452 421.418729 137.455329 423.944503 138.671714 427.48221 140.375117 428.336499 145.011062 425.945186 148.104785 423.674423 151.043125 419.460935 150.71033 416.181717 150.204759 413.440342 149.782677 412.262652 153.972189 415.026051 154.39775M342.457853 89.4261001C338.951443 97.4491382 334.851552 105.142859 330.147746 112.528136 329.14045 114.109784 331.648838 115.561561 332.649179 113.990349 337.354143 106.606232 341.454035 98.9125106 344.960445 90.8894726 345.701138 89.1941869 343.204342 87.7168996 342.457853 89.4261001M348.425126 93.1459882C343.021197 99.8274083 338.935215 107.220802 336.189204 115.364435 335.589926 117.14089 338.389259 117.896927 338.983899 116.135546 341.565313 108.478931 345.392806 101.47863 350.474492 95.1961012 351.638272 93.7570796 349.600498 91.6918923 348.425126 93.1459882"/><path d="M419.043643,138.638087 C416.429774,138.700703 414.521823,140.556009 414.203059,143.107055 C413.900522,145.522431 416.173603,147.950562 418.51971,148.068838 C421.068668,148.19755 423.50287,146.328329 423.63733,143.685678 C423.771791,141.029112 421.948458,138.301813 419.04828,138.825936 C417.212196,139.157572 417.9923,141.950967 419.819111,141.620491 C420.820611,141.439598 420.802064,143.643934 420.596896,144.122834 C420.279291,144.862638 419.353135,145.292837 418.577668,145.169923 C416.333565,144.813936 416.898068,141.589182 419.043643,141.537002 C420.908706,141.491779 420.913342,138.592864 419.043643,138.638087"/></g></svg>