<svg xmlns="http://www.w3.org/2000/svg" width="273" height="265" viewBox="0 0 273 265"><g fill="#F97316" fill-rule="evenodd" transform="translate(.5)"><g transform="translate(55.5)"><path d="M71.7612865,73.2532363 C82.1505963,80.8194435 105.706259,92.0857395 113.987384,96.1771838 C122.711748,100.490001 133.457489,108.534532 133.983935,118.90743 C134.293162,124.999136 130.100395,131.521729 124.67232,134.447012 C118.530182,137.759699 109.073754,135.696188 99.2496937,128.9878 C89.9856824,122.662862 79.5515687,112.34926 70.1999498,99.8377418 C55.1686335,79.7323448 52.3451863,79.2223966 46.7098928,79.6097991 C45.8746197,79.6651423 44.9889421,79.7283917 43.7752358,79.7521102 C38.6143839,79.8588435 33.305119,78.1629695 27.275391,73.5813425 C21.6536987,69.3080562 15.0863236,62.7380267 8.159317,54.598622 C2.25359985,47.6570024 -4.72341112,34.1453534 4.39658751,26.5633338 C5.8319132,25.3734549 7.66887406,25.0967388 9.2030084,24.827929 C9.20220833,24.5788845 9.20780882,24.3298401 9.22741053,24.0887018 C9.38022392,22.1121587 9.85866581,20.4558155 10.5583271,19.0761884 C11.8996445,16.4236674 13.9698258,14.8977761 16.1600176,14.0755342 C17.5813421,13.5379144 19.0374696,13.3165416 20.3483844,13.2691046 C20.4419926,12.2096774 20.7024154,11.2134997 21.1080509,10.3042898 C21.8985201,8.53726025 23.2174356,7.12205535 24.934386,6.18912698 C26.5537278,5.31154182 28.4990981,4.8846085 30.6476863,5.0269196 C34.0075805,5.24433935 37.9387247,6.87301091 41.835466,10.4307886 C55.5346656,22.9225413 67.5565183,45.2732914 64.5094515,63.9990612 C62.2980579,55.2192565 56.9979937,44.5103457 53.5444913,37.6833656 C48.664464,28.0417881 42.4883232,19.5703242 37.5322892,15.0479934 C34.7104421,12.4745342 31.0313199,9.80620096 28.3194824,11.4862626 C27.058972,12.2689737 26.7445445,14.1032058 28.8227265,18.0879168 C31.9598012,24.096608 38.6547875,32.4494794 40.3557364,35.4459188 C41.3406226,37.1813237 42.2819051,38.6123409 42.8107514,40.0670767 C44.6373113,45.0993556 40.2061233,45.6962716 38.3575614,43.5378865 C34.1339916,38.568857 29.5171873,30.6547782 25.3884257,25.2667215 C23.0194183,22.1714549 19.1482793,19.4201069 17.032094,21.4361809 C13.9102206,24.4049487 17.1481041,29.6744128 20.9580378,35.0189855 C24.9659887,40.6363211 29.696403,46.309 31.9834032,48.4673851 C33.2535145,49.6612172 33.3043189,51.6496196 32.0958131,52.906701 C30.8873073,54.1598294 28.8767312,54.2072664 27.6058199,53.0134344 C27.5762173,52.9857628 22.0057295,47.7597827 17.0016913,41.2411433 C15.9119959,39.8219853 9.34142052,31.2596004 7.26643882,33.8923559 C4.14496547,37.8414891 10.5751286,47.1154296 13.1745562,50.1751184 C19.7975361,57.9547923 25.6836516,63.9555773 30.9565133,67.9600537 C35.8225394,71.6601425 40.0221072,73.561577 43.6508249,73.4864684 C44.4380939,73.466703 45.3893772,73.4034536 46.2878559,73.3441573 C54.1525446,72.8025845 58.4633221,72.5100561 75.5632195,95.3826135 C84.5068027,107.3407 94.2720578,117.025761 102.987621,122.975156 C110.819507,128.323682 117.470089,130.584847 121.306825,128.517383 C124.617515,126.734541 126.371269,123.560213 126.184452,119.860124 C126.092044,118.053564 125.532795,116.112598 124.4447,114.143961 C122.254108,110.171109 117.980534,106.138961 111.150736,102.766979 C107.288798,100.857638 84.5388055,91.1369988 71.7612865,73.2532363"/><path d="M94.2600511 67.328933C90.1106832 57.3265421 92.2746944 43.6811078 95.9343435 33.8824397 101.299905 19.506 116.25589 3.33200607 131.60199.49586487 146.455209-2.24840133 156.203734 6.81526681 159.518722 17.3928751 163.80801 31.0862441 158.296204 48.6623304 149.229096 60.3983626 141.229172 70.7482807 130.099238 76.8479816 117.647577 79.9397749 106.658353 82.6680629 106.120413 82.7998835 98.5837256 92.7543396 97.5319569 94.1444483 95.5616198 94.4120841 94.1845577 93.3495298 92.8071004 92.2869755 92.5434665 90.2936876 93.5944447 88.9035789 102.477365 77.1755359 103.116094 77.0157533 116.149172 73.7801556 116.806478 73.6163784 117.485128 73.4486067 119.368509 72.9692589 126.867648 71.075835 135.285355 65.1958353 141.800708 56.7633084 147.488797 49.401325 151.670575 40.1299395 152.460291 29.9158366 152.85752 24.7748313 152.118002 20.3089076 150.481654 16.7497501 148.922775 13.3583644 146.53347 10.789859 143.543775 9.26792976 140.513764 7.72203308 136.812218 7.21871788 132.666012 7.98567437 127.812698 8.88445151 122.376781 11.4929025 116.679602 16.1545599 93.7861425 34.8850755 95.7220926 62.5674114 94.2600511 67.328933M64.9674571 87.5479535C66.4153977 86.5785021 68.4036026 86.9289062 69.4045387 88.3344161 70.4042689 89.7360326 70.0408768 91.6593619 68.5917303 92.6288133 65.8023745 94.5015286 62.8457941 96.3781374 59.8023854 98.161305 56.7573688 99.948366 53.4993016 101.712067 50.0603423 103.378433 43.196493 106.699485 38.9029192 110.670732 36.7004577 114.583578 35.6082715 116.522481 35.0463002 118.43413 34.9534422 120.213404 34.866212 121.914811 35.2026713 123.495523 35.9073464 124.858206 36.7326163 126.458384 38.0800612 127.8016 39.8544115 128.739905 43.0899677 130.449098 48.4218621 129.094202 54.8077543 125.426639 62.1202159 121.23347 70.4392414 114.104693 78.5219012 104.986399 79.666747 103.68601 81.3148748 103.857319 82.6534762 104.966932 83.9932835 106.076545 84.5154586 107.707871 83.3698088 109.004366 74.8276831 118.640479 66.7446212 127.322715 58.8565209 131.850715 48.3583489 138.812076 34.5502539 139.699767 28.6776932 128.327206 26.0045103 123.149012 26.7071755 115.693191 29.504571 110.729133 35.0909202 100.804909 47.1335085 98.355974 56.502914 92.862416 59.5455187 91.0792484 62.3782886 89.2844006 64.9674571 87.5479535"/></g><text font-family="Poppins-Regular, Poppins" font-size="67">
                    <tspan x=".425" y="212">KITCHEN</tspan>
                </text><text font-family="Poppins-SemiBold, Poppins" font-size="32" font-weight="500">
                    <tspan x="19.504" y="248">CONVERSIONS</tspan>
                </text></g></svg>