<svg xmlns="http://www.w3.org/2000/svg" xml:space="preserve" style="fill-rule:evenodd;clip-rule:evenodd;stroke-linejoin:round;stroke-miterlimit:2" viewBox="0 0 273 249"><path d="M71.761 73.253c10.39 7.566 33.945 18.833 42.226 22.924 8.725 4.313 19.47 12.358 19.997 22.73.309 6.092-3.884 12.615-9.312 15.54-6.142 3.313-15.598 1.249-25.422-5.459-9.264-6.325-19.698-16.639-29.05-29.15C55.169 79.732 52.345 79.222 46.71 79.61c-.835.055-1.721.118-2.935.142-5.161.107-10.47-1.589-16.5-6.171-5.621-4.273-12.189-10.843-19.116-18.982-5.905-6.942-12.882-20.454-3.762-28.036 1.435-1.19 3.272-1.466 4.806-1.735a9.003 9.003 0 0 1 .024-.739c.153-1.977.632-3.633 1.331-5.013 1.342-2.652 3.412-4.178 5.602-5 1.421-.538 2.877-.759 4.188-.807a9.26 9.26 0 0 1 .76-2.965 8.68 8.68 0 0 1 3.826-4.115c1.62-.877 3.565-1.304 5.714-1.162 3.36.217 7.291 1.846 11.187 5.404 13.7 12.492 25.722 34.842 22.674 53.568-2.211-8.78-7.511-19.489-10.965-26.316-4.88-9.641-11.056-18.113-16.012-22.635-2.822-2.573-6.501-5.242-9.213-3.562-1.26.783-1.574 2.617.504 6.602 3.137 6.009 9.832 14.361 11.533 17.358.985 1.735 1.926 3.166 2.455 4.621 1.826 5.032-2.605 5.629-4.453 3.471-4.224-4.969-8.841-12.883-12.97-18.271-2.369-3.096-6.24-5.847-8.356-3.831-3.122 2.969.116 8.238 3.926 13.583 4.008 5.617 8.738 11.29 11.025 13.448a3.117 3.117 0 0 1 .113 4.44 3.206 3.206 0 0 1-4.49.106c-.03-.027-5.6-5.253-10.604-11.772-1.09-1.419-7.661-9.981-9.736-7.349-3.121 3.949 3.309 13.223 5.909 16.283 6.623 7.78 12.509 13.781 17.782 17.785 4.866 3.7 9.065 5.602 12.694 5.526.787-.019 1.738-.083 2.637-.142 7.865-.541 12.175-.834 29.275 22.039 8.944 11.958 18.709 21.643 27.425 27.592 7.832 5.349 14.482 7.61 18.319 5.542 3.311-1.782 5.064-4.957 4.877-8.657-.092-1.806-.651-3.747-1.739-5.716-2.191-3.973-6.464-8.005-13.294-11.377-3.862-1.909-26.612-11.63-39.39-29.514" style="fill:#f97316" transform="translate(56)"/><path d="M94.26 67.329c-4.149-10.002-1.985-23.648 1.674-33.447C101.3 19.506 116.256 3.332 131.602.496c14.853-2.744 24.602 6.319 27.917 16.897 4.289 13.693-1.223 31.269-10.29 43.005-8 10.35-19.13 16.45-31.581 19.542-10.99 2.728-11.528 2.86-19.064 12.814a3.12 3.12 0 0 1-4.399.596 3.195 3.195 0 0 1-.591-4.446c8.883-11.728 9.522-11.888 22.555-15.124.657-.164 1.336-.331 3.22-.811 7.499-1.893 15.916-7.773 22.432-16.206 5.688-7.362 9.87-16.633 10.659-26.847.398-5.141-.342-9.607-1.978-13.166-1.559-3.392-3.949-5.96-6.938-7.482-3.03-1.546-6.732-2.049-10.878-1.282-4.853.898-10.289 3.507-15.986 8.169-22.894 18.73-20.958 46.412-22.42 51.174M64.967 87.548c1.448-.969 3.437-.619 4.438.786.999 1.402.636 3.325-.813 4.295a170.049 170.049 0 0 1-8.79 5.532 139.093 139.093 0 0 1-9.742 5.217c-6.864 3.321-11.157 7.293-13.36 11.206-1.092 1.938-1.654 3.85-1.747 5.629-.087 1.702.25 3.283.954 4.645.826 1.6 2.173 2.944 3.947 3.882 3.236 1.709 8.568.354 14.954-3.313 7.312-4.194 15.631-11.322 23.714-20.441 1.145-1.3 2.793-1.129 4.131-.019 1.34 1.11 1.862 2.741.717 4.037-8.542 9.636-16.625 18.319-24.513 22.847-10.499 6.961-24.307 7.849-30.179-3.524-2.673-5.178-1.971-12.634.827-17.598 5.586-9.924 17.629-12.373 26.998-17.867a165.026 165.026 0 0 0 8.464-5.314" style="fill:#f97316" transform="translate(56)"/><path d="M30.485 0 11.256-21.306V0H5.159v-46.699h6.097v21.641l19.296-21.641h7.705L17.085-23.316 38.458 0h-7.973ZM45.292-46.699h6.097V0h-6.097zM90.517-46.699v4.958h-12.73V0H71.69v-41.741H58.893v-4.958h31.624ZM95.743-23.383c0-4.556 1.027-8.654 3.082-12.294 2.055-3.641 4.857-6.488 8.408-8.543 3.551-2.055 7.493-3.082 11.826-3.082 5.092 0 9.536 1.228 13.333 3.685 3.797 2.457 6.566 5.941 8.308 10.452h-7.303c-1.295-2.814-3.16-4.98-5.595-6.499-2.434-1.519-5.348-2.278-8.743-2.278-3.261 0-6.186.759-8.777 2.278-2.591 1.519-4.623 3.674-6.097 6.465-1.474 2.792-2.211 6.064-2.211 9.816 0 3.707.737 6.957 2.211 9.748 1.474 2.792 3.506 4.947 6.097 6.466 2.591 1.519 5.516 2.278 8.777 2.278 3.395 0 6.309-.748 8.743-2.244 2.435-1.497 4.3-3.652 5.595-6.466h7.303c-1.742 4.467-4.511 7.917-8.308 10.351-3.797 2.435-8.241 3.652-13.333 3.652-4.333 0-8.275-1.016-11.826-3.049-3.551-2.032-6.353-4.857-8.408-8.475-2.055-3.618-3.082-7.705-3.082-12.261ZM185.724-46.699V0h-6.097v-21.172h-23.785V0h-6.097v-46.699h6.097v20.502h23.785v-20.502h6.097ZM202.206-41.741v15.611h17.018v5.025h-17.018v16.08h19.028V0h-25.125v-46.766h25.125v5.025h-19.028ZM267.196 0h-6.097l-24.522-37.185V0h-6.097v-46.766h6.097l24.522 37.118v-37.118h6.097V0Z" style="fill:#f97316;fill-rule:nonzero" transform="translate(.925 212.776)"/><path d="M1.12-11.2c0-2.197.496-4.165 1.488-5.904a10.627 10.627 0 0 1 4.064-4.064c1.717-.971 3.643-1.456 5.776-1.456 2.496 0 4.683.64 6.56 1.92 1.877 1.28 3.189 3.051 3.936 5.312h-5.152c-.512-1.067-1.232-1.867-2.16-2.4-.928-.533-2-.8-3.216-.8-1.301 0-2.459.304-3.472.912-1.013.608-1.803 1.467-2.368 2.576s-.848 2.411-.848 3.904c0 1.472.283 2.768.848 3.888S7.931-5.328 8.944-4.72c1.013.608 2.171.912 3.472.912 1.216 0 2.288-.272 3.216-.816.928-.544 1.648-1.349 2.16-2.416h5.152c-.747 2.283-2.053 4.059-3.92 5.328C17.157-.443 14.965.192 12.448.192c-2.133 0-4.059-.485-5.776-1.456a10.662 10.662 0 0 1-4.064-4.048C1.616-7.04 1.12-9.003 1.12-11.2ZM37.152.224c-2.091 0-4.011-.491-5.76-1.472a10.987 10.987 0 0 1-4.16-4.08c-1.024-1.739-1.536-3.707-1.536-5.904 0-2.176.512-4.133 1.536-5.872a10.987 10.987 0 0 1 4.16-4.08c1.749-.981 3.669-1.472 5.76-1.472 2.112 0 4.037.491 5.776 1.472a10.896 10.896 0 0 1 4.128 4.08c1.013 1.739 1.52 3.696 1.52 5.872 0 2.197-.507 4.165-1.52 5.904a10.868 10.868 0 0 1-4.144 4.08c-1.749.981-3.669 1.472-5.76 1.472Zm0-4c1.344 0 2.528-.304 3.552-.912 1.024-.608 1.824-1.477 2.4-2.608.576-1.131.864-2.443.864-3.936 0-1.493-.288-2.8-.864-3.92-.576-1.12-1.376-1.979-2.4-2.576s-2.208-.896-3.552-.896c-1.344 0-2.533.299-3.568.896-1.035.597-1.84 1.456-2.416 2.576-.576 1.12-.864 2.427-.864 3.92 0 1.493.288 2.805.864 3.936.576 1.131 1.381 2 2.416 2.608 1.035.608 2.224.912 3.568.912ZM71.008 0h-4.48L56.384-15.328V0h-4.48v-22.368h4.48l10.144 15.36v-15.36h4.48V0ZM95.488-22.336 87.296 0h-5.44l-8.192-22.336h4.8l6.144 17.76 6.112-17.76h4.768ZM102.656-18.72v5.6h7.52v3.552h-7.52v5.92h8.48V0h-12.96v-22.368h12.96v3.648h-8.48ZM126.72 0l-4.928-8.704h-2.112V0h-4.48v-22.336h8.384c1.728 0 3.2.304 4.416.912 1.216.608 2.128 1.429 2.736 2.464.608 1.035.912 2.192.912 3.472 0 1.472-.427 2.8-1.28 3.984-.853 1.184-2.123 2-3.808 2.448L131.904 0h-5.184Zm-7.04-12.064h3.744c1.216 0 2.123-.293 2.72-.88s.896-1.403.896-2.448c0-1.024-.299-1.819-.896-2.384s-1.504-.848-2.72-.848h-3.744v6.56ZM143.424.224c-1.557 0-2.96-.267-4.208-.8-1.248-.533-2.235-1.301-2.96-2.304-.725-1.003-1.099-2.187-1.12-3.552h4.8c.064.917.389 1.643.976 2.176.587.533 1.392.8 2.416.8 1.045 0 1.867-.251 2.464-.752s.896-1.157.896-1.968c0-.661-.203-1.205-.608-1.632a4.248 4.248 0 0 0-1.52-1.008c-.608-.245-1.445-.517-2.512-.816-1.451-.427-2.629-.848-3.536-1.264-.907-.416-1.685-1.045-2.336-1.888-.651-.843-.976-1.968-.976-3.376 0-1.323.331-2.475.992-3.456.661-.981 1.589-1.733 2.784-2.256 1.195-.523 2.56-.784 4.096-.784 2.304 0 4.176.56 5.616 1.68 1.44 1.12 2.235 2.683 2.384 4.688h-4.928c-.043-.768-.368-1.403-.976-1.904-.608-.501-1.413-.752-2.416-.752-.875 0-1.573.224-2.096.672-.523.448-.784 1.099-.784 1.952 0 .597.197 1.093.592 1.488.395.395.885.715 1.472.96s1.413.528 2.48.848c1.451.427 2.635.853 3.552 1.28.917.427 1.707 1.067 2.368 1.92.661.853.992 1.973.992 3.36a6.316 6.316 0 0 1-.928 3.328c-.619 1.024-1.525 1.84-2.72 2.448-1.195.608-2.613.912-4.256.912ZM155.2-22.336h4.48V0h-4.48zM174.464.224c-2.091 0-4.011-.491-5.76-1.472a10.987 10.987 0 0 1-4.16-4.08c-1.024-1.739-1.536-3.707-1.536-5.904 0-2.176.512-4.133 1.536-5.872a10.987 10.987 0 0 1 4.16-4.08c1.749-.981 3.669-1.472 5.76-1.472 2.112 0 4.037.491 5.776 1.472a10.896 10.896 0 0 1 4.128 4.08c1.013 1.739 1.52 3.696 1.52 5.872 0 2.197-.507 4.165-1.52 5.904a10.868 10.868 0 0 1-4.144 4.08c-1.749.981-3.669 1.472-5.76 1.472Zm0-4c1.344 0 2.528-.304 3.552-.912 1.024-.608 1.824-1.477 2.4-2.608.576-1.131.864-2.443.864-3.936 0-1.493-.288-2.8-.864-3.92-.576-1.12-1.376-1.979-2.4-2.576s-2.208-.896-3.552-.896c-1.344 0-2.533.299-3.568.896-1.035.597-1.84 1.456-2.416 2.576-.576 1.12-.864 2.427-.864 3.92 0 1.493.288 2.805.864 3.936.576 1.131 1.381 2 2.416 2.608 1.035.608 2.224.912 3.568.912ZM208.32 0h-4.48l-10.144-15.328V0h-4.48v-22.368h4.48l10.144 15.36v-15.36h4.48V0ZM220.448.224c-1.557 0-2.96-.267-4.208-.8-1.248-.533-2.235-1.301-2.96-2.304-.725-1.003-1.099-2.187-1.12-3.552h4.8c.064.917.389 1.643.976 2.176.587.533 1.392.8 2.416.8 1.045 0 1.867-.251 2.464-.752s.896-1.157.896-1.968c0-.661-.203-1.205-.608-1.632a4.248 4.248 0 0 0-1.52-1.008c-.608-.245-1.445-.517-2.512-.816-1.451-.427-2.629-.848-3.536-1.264-.907-.416-1.685-1.045-2.336-1.888-.651-.843-.976-1.968-.976-3.376 0-1.323.331-2.475.992-3.456.661-.981 1.589-1.733 2.784-2.256 1.195-.523 2.56-.784 4.096-.784 2.304 0 4.176.56 5.616 1.68 1.44 1.12 2.235 2.683 2.384 4.688h-4.928c-.043-.768-.368-1.403-.976-1.904-.608-.501-1.413-.752-2.416-.752-.875 0-1.573.224-2.096.672-.523.448-.784 1.099-.784 1.952 0 .597.197 1.093.592 1.488.395.395.885.715 1.472.96s1.413.528 2.48.848c1.451.427 2.635.853 3.552 1.28.917.427 1.707 1.067 2.368 1.92.661.853.992 1.973.992 3.36a6.316 6.316 0 0 1-.928 3.328c-.619 1.024-1.525 1.84-2.72 2.448-1.195.608-2.613.912-4.256.912Z" style="fill:#f97316;fill-rule:nonzero" transform="translate(20.004 248.776)"/></svg>